<?xml version="1.0" standalone="no"?>
<!DOCTYPE svg PUBLIC "-//W3C//DTD SVG 1.1//EN" "http://www.w3.org/Graphics/SVG/1.1/DTD/svg11.dtd" >
<svg>
<metadata>
Created by FontForge 20090914 at Wed Oct 19 01:04:28 2011
 By www-data
(c) by Abolfazl Seilsepour - +98 912 591 3420  -  seilsepor@yahoo.com
</metadata>
<defs>
<font id="FarDastan" horiz-adv-x="0" >
  <font-face 
    font-family="Far.Dastan"
    font-weight="400"
    font-stretch="normal"
    units-per-em="2048"
    panose-1="0 0 4 0 0 0 0 0 0 0"
    ascent="1638"
    descent="-410"
    bbox="-183 -1360 2088 1988"
    underline-thickness="60"
    underline-position="-970"
    unicode-range="U+0020-U+FEFC"
  />
<missing-glyph horiz-adv-x="1024" 
d="M128 0v1215h768v-1215h-768zM256 128h512v959h-512v-959z" />
    <glyph glyph-name="uE818" unicode="&#x651;&#x64b;" 
d="M481 1403c0 -28.667 -9.33398 -57.999 -28.001 -87.999c-22.667 -36.667 -50.667 -55 -84 -55c-14 0 -28.333 3.33301 -43 10c-37.333 -67.333 -82.333 -101 -135 -101c-21.333 0 -38 10.667 -50 32c-10.667 18 -16 38.333 -16 61c0 36.667 12.667 78 38 124
c4 7.33301 9 11.666 15 12.999c2.66699 -4 5.33398 -7.66699 8.00098 -11c-2 -19.333 -3 -36.333 -3 -51c0 -46.667 11 -70 33 -70c30 0 55.667 33.333 77 100s33 100 35 100c6 0 11.5 -17.667 16.5 -53s17.167 -53 36.5 -53c22 0 38.333 27.667 49 83s18 83 22 83
c19.333 0 29 -41.333 29 -124zM520.999 1731l-38 -97l-371 -181l37 89zM520.999 1901l-38 -97l-371 -181l37 89z" />
    <glyph glyph-name="uFC5E" unicode="&#x651;&#x64c;" arabic-form="isolated" 
d="M438 1403c0 -28 -9 -56.6641 -27 -85.9971c-22.667 -36 -50.334 -54 -83.001 -54c-13.333 0 -27.333 3 -42 9c-36.667 -66 -80.667 -99 -132 -99c-43.333 0 -65 30.667 -65 92c0 35.333 12.333 75.666 37 120.999c4 7.33301 9 11.666 15 12.999
c2.66699 -4 5.33398 -7.66699 8.00098 -11c-2 -18.667 -3 -35.334 -3 -50.001c0 -45.333 10.667 -68 32 -68c29.333 0 54.5 32.667 75.5 98s32.5 98 34.5 98c6 0 11.5 -17.333 16.5 -52s16.833 -52 35.5 -52c22 0 38.167 27 48.5 81s17.5 81 21.5 81
c18.667 0 28 -40.333 28 -121zM476 1854c0 -63.333 -21.332 -115.999 -63.999 -157.999l52 -23l-9 -87c-36.667 6 -71.334 24.333 -104.001 55c-88.667 -68 -171.667 -108 -249 -120l-52 35c48 27.333 73 62.333 75 105c1.33301 23.333 -1 37.333 -7 42
c-14.667 10.667 -41.334 5.66699 -80.001 -15l-1 30c36.667 38.667 68.334 58 95.001 58c39.333 0 59 -20.333 59 -61c0 -35.333 -12.333 -74 -37 -116c77.333 32 123.333 59.667 138 83c-27.333 27.333 -41 59.666 -41 96.999c0 29.333 18.833 63.5 56.5 102.5
s71.5 58.5 101.5 58.5c44.667 0 67 -28.667 67 -86zM391.001 1860c-12.667 0 -27.666 -6.33301 -44.999 -19c-19.333 -13.333 -29 -26 -29 -38c0 -11.333 5.5 -25.5 16.5 -42.5s21.833 -25.5 32.5 -25.5c13.333 0 24.666 13 33.999 39c7.33301 20 11 38.667 11 56
c0 20 -6.66699 30 -20 30z" />
    <glyph glyph-name="uFC5F" unicode="&#x651;&#x64d;" arabic-form="isolated" 
d="M449 1864c0 -28.667 -9.33398 -57.999 -28.001 -87.999c-22.667 -36.667 -50.667 -55 -84 -55c-14 0 -28.333 3.33301 -43 10c-37.333 -67.333 -82.333 -101 -135 -101c-21.333 0 -38 10.667 -50 32c-10.667 18 -16 38.333 -16 61c0 36.667 12.667 78 38 124
c4 7.33301 9 11.666 15 12.999c2.66699 -4 5.33398 -7.66699 8.00098 -11c-2 -19.333 -3 -36.333 -3 -51c0 -46.667 11 -70 33 -70c30 0 55.667 33.333 77 100s33 100 35 100c6 0 11.5 -17.667 16.5 -53s17.167 -53 36.5 -53c22 0 38.333 27.667 49 83s18 83 22 83
c19.333 0 29 -41.333 29 -124zM468.999 1672l-38 -97l-371 -181l37 89zM468.999 1512l-38 -97l-371 -181l37 89z" />
    <glyph glyph-name="uFC60" unicode="&#x651;&#x64e;" arabic-form="isolated" 
d="M487 1397c0 -28 -9 -56.6641 -27 -85.9971c-22.667 -36 -50.334 -54 -83.001 -54c-13.333 0 -27.333 3 -42 9c-36.667 -66 -80.667 -99 -132 -99c-43.333 0 -65 30.667 -65 92c0 35.333 12.333 75.666 37 120.999c4 7.33301 9 11.666 15 12.999
c2.66699 -4 5.33398 -7.66699 8.00098 -11c-2 -18.667 -3 -35.334 -3 -50.001c0 -45.333 10.667 -68 32 -68c29.333 0 54.5 32.667 75.5 98s32.5 98 34.5 98c6 0 11.5 -17.333 16.5 -52s16.833 -52 35.5 -52c22 0 38.167 27 48.5 81s17.5 81 21.5 81
c18.667 0 28 -40.333 28 -121zM533 1738l-38 -97l-371 -181l37 89z" />
    <glyph glyph-name="uFC61" unicode="&#x651;&#x64f;" arabic-form="isolated" 
d="M457 1427c0 -28.667 -9.33398 -57.999 -28.001 -87.999c-22.667 -36.667 -50.667 -55 -84 -55c-14 0 -28.333 3.33301 -43 10c-37.333 -67.333 -82.333 -101 -135 -101c-21.333 0 -38 10.667 -50 32c-10.667 18 -16 38.333 -16 61c0 36.667 12.667 78 38 124
c4 7.33301 9 11.666 15 12.999c2.66699 -4 5.33398 -7.66699 8.00098 -11c-2 -19.333 -3 -36.333 -3 -51c0 -46.667 11 -70 33 -70c30 0 55.667 33.333 77 100s33 100 35 100c6 0 11.5 -17.667 16.5 -53s17.167 -53 36.5 -53c22 0 38.333 27.667 49 83s18 83 22 83
c19.333 0 29 -41.333 29 -124zM491.999 1872c0 -61.333 -21.333 -113.668 -64 -157.001c11.333 -8.66699 28.333 -18 51 -28l-7 -85c-47.333 14.667 -85.333 35 -114 61c-87.333 -73.333 -174.666 -116.333 -261.999 -129c-30 4 -45.667 17 -47 39
c121.333 40 207.666 82.333 258.999 127c-30.667 29.333 -46 61 -46 95c0 30.667 19.167 65.834 57.5 105.501s72.5 59.5 102.5 59.5c46.667 0 70 -29.333 70 -88zM401.999 1878c-12 0 -27.167 -6.66797 -45.5 -20.001s-27.5 -25.666 -27.5 -36.999
c0 -12 5.5 -26.667 16.5 -44s22.167 -26 33.5 -26c12.667 0 23.667 13.333 33 40c7.33301 22 11 40.667 11 56c0 20.667 -7 31 -21 31z" />
    <glyph glyph-name="uFC62" unicode="&#x651;&#x650;" arabic-form="isolated" 
d="M512 1672c0 -28.667 -9.33398 -57.999 -28.001 -87.999c-22.667 -36.667 -50.667 -55 -84 -55c-14 0 -28.333 3.33301 -43 10c-37.333 -67.333 -82.333 -101 -135 -101c-21.333 0 -38 10.667 -50 32c-10.667 18 -16 38.333 -16 61c0 36.667 12.667 78 38 124
c4 7.33301 9 11.666 15 12.999c2.66699 -4 5.33398 -7.66699 8.00098 -11c-2 -19.333 -3 -36.333 -3 -51c0 -46.667 11 -70 33 -70c30 0 55.667 33.333 77 100s33 100 35 100c6 0 11.5 -17.667 16.5 -53s17.167 -53 36.5 -53c22 0 38.333 27.667 49 83s18 83 22 83
c19.333 0 29 -41.333 29 -124zM531.999 1480l-38 -97l-371 -181l37 89z" />
    <glyph glyph-name="uFDF2" unicode="&#xfedf;&#xfee0;&#xfeea;" horiz-adv-x="1181" arabic-form="isolated" 
d="M586 1838c53.333 -5.33301 79.999 -21.333 79.999 -48l8 -32l-4 -40c10.667 -16 16 -44 16 -84c-4 -21.333 -8 -32 -12 -32l4 -4c-20 -104 -41.333 -156 -64 -156l-28 -28h-20c-15.333 0 -24.666 26.667 -27.999 80c-10.667 12 -16 24 -16 36l16 52
c-13.333 20 -20 34.667 -20 44v4l4 32c-1.33301 20.667 -8 36.667 -20 48v28l4 4l-4 4v4c0 56 21.333 84 64 84zM745.999 1338l4 -3.99805h4l12 4c19.333 -16 31.333 -36 36 -60l8 -28c0 -103.333 -29.333 -170 -88 -200c-6 -5.33301 -15.333 -8 -28 -8l-16 -32h-4
c0 5.33301 -6.66699 8 -20 8c-6 13.333 -30 20 -72 20c-14.667 0 -36 -10.667 -64 -32c-18.667 0 -28 -5.33301 -28 -16l-8 -8l-104 80l-16 32l8 32l-8 52v12c0 21.333 13.333 56 40 104l28 8h4c26.667 -8.66699 40 -43.334 40 -104.001c5.33301 0 8 -5.33301 8 -16h24
c29.333 13.333 44 49.333 44 108l28 20h8c32 0 48 -20 48 -60c0 -22.667 14.667 -45.334 44 -68.001c13.333 10 20 24.667 20 44l-4 52c6 0 11.333 13.333 16 40zM969.999 890.002l32.001 0.00292969c7.33301 0 16.666 -20 27.999 -60c26 -26 40.667 -51.333 44 -76v-16
l-4 -36c24 -43.333 44 -110 60 -200c21.333 -34.667 32 -69.334 32 -104.001c21.333 -32.667 32 -87.334 32 -164.001l8 -16l-12 -16l4 -44l-28 -108c0 -24 -10.667 -36 -32 -36c0 -10.667 -5.33301 -18.667 -16 -24h-12l-12 8h-48l-64 -12c-38 9.33301 -70 25.333 -96 48
l-76 92l-4 4h-4c-4.66699 0 -23.334 -20 -56.001 -60l-76 -44c-98.667 0 -160 36 -184 108c-6 32 -12.667 48 -20 48h-12c0 -10.667 -38.667 -30.667 -116 -60h-28c-35.333 6 -66 23.333 -92 52c-4.66699 0 -14 20 -28 60v24l16 28c28.667 56 55.334 84 80.001 84
c1.33301 7.33301 13.333 18 36 32h4v-8h4c8 0 17.333 13.333 28 40c15.333 0 26 9.33301 32 28c24 13.333 36 26.666 36 39.999c12 12.667 24 34 36 64c12 0.666992 24 6 36 16h4c32 -15.333 48 -47.333 48 -96c6 0 10 -9.33301 12 -28l-12 -44
c13.333 -65.333 20 -116 20 -152v-4c1.33301 -5.33301 8 -10.666 20 -15.999l16 4c0 -15.333 25.333 -31.333 76 -48c10.667 16 22.667 24 36 24l16 -4c16.667 14.667 26 30.667 28 48c-5.33301 35.333 -12 60.666 -20 75.999c8 12.667 12 36.667 12 72v4
c0 13.333 -13.333 48 -40 104l-28 116v16c5.33301 42.667 24 64 56 64s54.667 -33.333 68 -100c8.66699 -3.33301 16.667 -43.333 24 -120l28 -44l-4 -16c16 -82.667 29.333 -133.334 40 -152.001c4.66699 -15.333 15.334 -31.333 32.001 -48v-4l24 4l36 -28
c31.333 39.333 48.666 66 51.999 80l-24 92l-16 52c0 12.667 -9.33301 32.667 -28 60c0 20.667 -18.667 86 -56 196c-24 24.667 -36 71.334 -36 140.001c38 34.667 60.667 52 68 52zM434 382.005c-10.667 -10.667 -24 -32 -40 -64c2.66699 -19.333 8 -31.333 16 -36
c9.33301 1.33301 26.666 17.333 51.999 48v8c-5.33301 29.333 -14.666 44 -27.999 44zM1122 -25.9951h12v-8h-4z" />
    <glyph glyph-name="uFEF5" unicode="&#xfedf;&#xfe82;" horiz-adv-x="1062" arabic-form="isolated" 
d="M318 1205c29.333 0 43.9971 -13.333 43.9971 -40c16 -9.33301 28 -25.333 36 -48c12 -3.33301 26.667 -24.666 44 -63.999c24.667 -38.667 40.667 -76 48 -112c17.333 0 36 -24 56 -72c13.333 -10 25.333 -32.667 36 -68c7.33301 0 14 -16 20 -48l32 -64
c10.667 0 24 -25.333 40 -76c10.667 0 38.667 -41.333 84 -124c20.667 -23.333 31.334 -42 32.001 -56h12l24 -8c48 103.333 72 183.333 72 240l-4 20l8 16l-4 20v28l4 44l-4 4v4l4 44v8c0 34 -10.667 87.333 -32 160v8c0 18 6.66699 42 20 72l28 56
c0 34.667 10.667 52 32 52c43.333 0 67.333 -26.667 72 -80c24 -34.667 36 -61.334 36 -80.001c-11.333 -98.667 -30 -148 -56 -148v-8h4c-2.66699 -45.333 -9.33398 -84 -20.001 -116l4 -4v-8l-4 -4l4 -4l-28 -136c-3.33301 -27.333 -7.33301 -43.333 -12 -48l4 -4v-4
c-7.33301 -39.333 -24.666 -80.666 -51.999 -123.999l-32 -76l-12 -36c16 -37.333 24 -93.333 24 -168c0 -28.667 -25.333 -74 -76 -136c-22.667 -18.667 -46.667 -28 -72 -28c-2.66699 -9.33301 -26.667 -18.666 -72 -27.999v4l-20 -12h-4l-12 4l-16 -4
c-66.667 3.33301 -100 12.666 -100 27.999l4 4c-13.333 0 -24 14.667 -32 44c0 35.333 10.667 59.333 32 72c8.66699 11.333 28.667 26 60 44c2.66699 8.66699 16 18 40 28c33.333 10.667 60 32 80 64c13.333 29.333 20 52 20 68c-5.33301 1.33301 -34.666 60 -87.999 176
h-8c-6 20.667 -18 40.667 -36 60c-11.333 33.333 -27.333 61.333 -48 84c-10 30 -26 56.667 -48 80l-84 156h-24c-9.33301 -8 -34.666 -12 -75.999 -12c-32 32 -56 81.333 -72 148v4c0 15.333 16 68.666 48 159.999l-4 12c8 0 12 6.66699 12 20zM205.997 1431
l11.999 -4.00195l16 4c31.333 -16 74 -24 128 -24c10.667 -10.667 25.334 -16 44.001 -16c16 10.667 38.667 17.334 68 20.001l52 -16l32 12l20 -8l16 4l32 -4c6 13.333 12.667 20 20 20l60 -20c2.66699 -21.333 10.667 -40 24 -56l4 -48
c-4.66699 -5.33301 -38 -14.666 -100 -27.999c0 -6.66699 -32 -13.334 -96 -20.001l-12 -8l-44 8l-4 -4h-4l-12 4c-34.667 -2.66699 -52 -6.66699 -52 -12c-70.667 2.66699 -126.667 9.33398 -168 20.001l-4 -4h-4l-4 4c-33.333 0 -69.333 -14.667 -108 -44
c-16 -14.667 -40 -22.667 -72 -24c-5.33301 6 -10.666 26 -15.999 60c37.333 101.333 74.666 152 111.999 152c31.333 21.333 51.333 32 60 32z" />
    <glyph glyph-name="uFEF6" unicode="&#xfee0;&#xfe82;" horiz-adv-x="1155" arabic-form="final" 
d="M935 1172c42.667 -4 64.001 -23.998 64.001 -59.998l4 -12l-12 -100l8 -36l-4 -44v-12l-4 -4l8 -24v-44l-8 -84l16 -100l-4 -24l4 -44l-4 -28c16 -86.667 25.333 -165.334 28 -236.001c0 -34.667 18.667 -62.667 56 -84c0 -6.66699 18.667 -26.667 56 -60
c10.667 -28 16 -66.667 16 -116c0 -17.333 -17.333 -36 -52 -56h-4c-7.33301 0 -46 33.333 -116 100c0 21.333 -14.667 40 -44 56c-29.333 82.667 -52 164 -68 244l-4 24c1.33301 26.667 4 40 8 40c-4.66699 40 -11.334 60 -20.001 60s-34 -62.667 -76 -188
c0 -16 -8 -34.667 -24 -56l4 -12c-8 -8 -14.667 -41.333 -20 -100c-13.333 -40.667 -32 -75.334 -56 -104.001c-14.667 -47.333 -28 -78 -40 -92l4 -12c-30.667 -52 -60 -81.333 -88 -88c0 -7.33301 -21.333 -14 -64 -20c-2 -7.33301 -18 -16.666 -48 -27.999h-104
c-53.333 0 -80 6.66699 -80 20v4c0 12.667 6.66699 28.667 20 48c0 10.667 8 16 24 16c0 8 5.33301 12 16 12c0 10.667 16 20 48 28c0 5.33301 13.333 16 40 32l4 -4v-4l28 28l16 -4c14 21.333 30 32 48 32c6.66699 25.333 26.667 49.333 60 72
c0 7.33301 12 24.666 36 51.999l4 44c-4.66699 47.333 -15.334 87.333 -32.001 120c0 32.667 -26.667 88.667 -80 168c-73.333 90.667 -117.333 136 -132 136l-32 16c-26 -21.333 -44.667 -32 -56 -32c-31.333 0 -52.666 24 -63.999 72c0 6.66699 -10.667 25.334 -32 56.001
l-8 60l8 80l-4 16c6.66699 21.333 17.334 32 32.001 32c53.333 0 90.666 -21.333 111.999 -64c86.667 -60 137.334 -110.667 152.001 -152c18 0 38 -26.667 60 -80c26 -14 47.333 -38 64 -72c0 -20.667 12 -39.334 36 -56.001l36 -112c11.333 -32 24.666 -48 39.999 -48
l12 20l-4 20c0 8 9.33301 26.667 28 56c0 50 14.667 96.667 44 140l-4 4v8l12 20l-4 20c1.33301 16 9.33301 32 24 48v24c5.33301 40 12 60 20 60l4 56l-4 28l8 24l-4 44c5.33301 6 8 20.667 8 44h4l-4 12c0 45.333 8 77.333 24 96v52c0 6.66699 20 24 60 52zM172.001 1230
l11.999 -4.00195l16 4c31.333 -16 74 -24 128 -24c10.667 -10.667 25.334 -16 44.001 -16c16 10.667 38.667 17.334 68 20.001l52 -16l32 12l20 -8l16 4l32 -4c6 13.333 12.667 20 20 20l60 -20c2.66699 -21.333 10.667 -40 24 -56l4 -48
c-4.66699 -5.33301 -38 -14.666 -100 -27.999c0 -6.66699 -32 -13.334 -96 -20.001l-12 -8l-44 8l-4 -4h-4l-12 4c-34.667 -2.66699 -52 -6.66699 -52 -12c-70.667 2.66699 -126.667 9.33398 -168 20.001l-4 -4h-4l-4 4c-33.333 0 -69.333 -14.667 -108 -44
c-16 -14.667 -40 -22.667 -72 -24c-5.33301 6 -10.666 26 -15.999 60c37.333 101.333 74.666 152 111.999 152c31.333 21.333 51.333 32 60 32z" />
    <glyph glyph-name="uFEF7" unicode="&#xfedf;&#xfe84;" horiz-adv-x="1062" arabic-form="isolated" 
d="M318 1205c29.333 0 43.9971 -13.333 43.9971 -40c16 -9.33301 28 -25.333 36 -48c12 -3.33301 26.667 -24.666 44 -63.999c24.667 -38.667 40.667 -76 48 -112c17.333 0 36 -24 56 -72c13.333 -10 25.333 -32.667 36 -68c7.33301 0 14 -16 20 -48l32 -64
c10.667 0 24 -25.333 40 -76c10.667 0 38.667 -41.333 84 -124c20.667 -23.333 31.334 -42 32.001 -56h12l24 -8c48 103.333 72 183.333 72 240l-4 20l8 16l-4 20v28l4 44l-4 4v4l4 44v8c0 34 -10.667 87.333 -32 160v8c0 18 6.66699 42 20 72l28 56
c0 34.667 10.667 52 32 52c43.333 0 67.333 -26.667 72 -80c24 -34.667 36 -61.334 36 -80.001c-11.333 -98.667 -30 -148 -56 -148v-8h4c-2.66699 -45.333 -9.33398 -84 -20.001 -116l4 -4v-8l-4 -4l4 -4l-28 -136c-3.33301 -27.333 -7.33301 -43.333 -12 -48l4 -4v-4
c-7.33301 -39.333 -24.666 -80.666 -51.999 -123.999l-32 -76l-12 -36c16 -37.333 24 -93.333 24 -168c0 -28.667 -25.333 -74 -76 -136c-22.667 -18.667 -46.667 -28 -72 -28c-2.66699 -9.33301 -26.667 -18.666 -72 -27.999v4l-20 -12h-4l-12 4l-16 -4
c-66.667 3.33301 -100 12.666 -100 27.999l4 4c-13.333 0 -24 14.667 -32 44c0 35.333 10.667 59.333 32 72c8.66699 11.333 28.667 26 60 44c2.66699 8.66699 16 18 40 28c33.333 10.667 60 32 80 64c13.333 29.333 20 52 20 68c-5.33301 1.33301 -34.666 60 -87.999 176
h-8c-6 20.667 -18 40.667 -36 60c-11.333 33.333 -27.333 61.333 -48 84c-10 30 -26 56.667 -48 80l-84 156h-24c-9.33301 -8 -34.666 -12 -75.999 -12c-32 32 -56 81.333 -72 148v4c0 15.333 16 68.666 48 159.999l-4 12c8 0 12 6.66699 12 20zM220.997 1585
l60.001 0.00195312c39.333 0 74 -24 104 -72c0 -16 -34.667 -24 -104 -24c-36.667 -14.667 -58 -29.334 -64 -44.001c14.667 -34.667 45.334 -52 92.001 -52c38.667 0 82.667 10.667 132 32c17.333 0 26.666 -24 27.999 -72v-12c0 -14.667 -44 -36 -132 -64
c-40 -28.667 -70.667 -55.334 -92 -80.001h-8c-37.333 22.667 -56 46.667 -56 72l12 40c-24 38 -36 71.333 -36 100v68c5.33301 72 26.666 108 63.999 108z" />
    <glyph glyph-name="uFEF8" unicode="&#xfee0;&#xfe84;" horiz-adv-x="1155" arabic-form="final" 
d="M935 1172c42.667 -4 64.001 -23.998 64.001 -59.998l4 -12l-12 -100l8 -36l-4 -44v-12l-4 -4l8 -24v-44l-8 -84l16 -100l-4 -24l4 -44l-4 -28c16 -86.667 25.333 -165.334 28 -236.001c0 -34.667 18.667 -62.667 56 -84c0 -6.66699 18.667 -26.667 56 -60
c10.667 -28 16 -66.667 16 -116c0 -17.333 -17.333 -36 -52 -56h-4c-7.33301 0 -46 33.333 -116 100c0 21.333 -14.667 40 -44 56c-29.333 82.667 -52 164 -68 244l-4 24c1.33301 26.667 4 40 8 40c-4.66699 40 -11.334 60 -20.001 60s-34 -62.667 -76 -188
c0 -16 -8 -34.667 -24 -56l4 -12c-8 -8 -14.667 -41.333 -20 -100c-13.333 -40.667 -32 -75.334 -56 -104.001c-14.667 -47.333 -28 -78 -40 -92l4 -12c-30.667 -52 -60 -81.333 -88 -88c0 -7.33301 -21.333 -14 -64 -20c-2 -7.33301 -18 -16.666 -48 -27.999h-104
c-53.333 0 -80 6.66699 -80 20v4c0 12.667 6.66699 28.667 20 48c0 10.667 8 16 24 16c0 8 5.33301 12 16 12c0 10.667 16 20 48 28c0 5.33301 13.333 16 40 32l4 -4v-4l28 28l16 -4c14 21.333 30 32 48 32c6.66699 25.333 26.667 49.333 60 72
c0 7.33301 12 24.666 36 51.999l4 44c-4.66699 47.333 -15.334 87.333 -32.001 120c0 32.667 -26.667 88.667 -80 168c-73.333 90.667 -117.333 136 -132 136l-32 16c-26 -21.333 -44.667 -32 -56 -32c-31.333 0 -52.666 24 -63.999 72c0 6.66699 -10.667 25.334 -32 56.001
l-8 60l8 80l-4 16c6.66699 21.333 17.334 32 32.001 32c53.333 0 90.666 -21.333 111.999 -64c86.667 -60 137.334 -110.667 152.001 -152c18 0 38 -26.667 60 -80c26 -14 47.333 -38 64 -72c0 -20.667 12 -39.334 36 -56.001l36 -112c11.333 -32 24.666 -48 39.999 -48
l12 20l-4 20c0 8 9.33301 26.667 28 56c0 50 14.667 96.667 44 140l-4 4v8l12 20l-4 20c1.33301 16 9.33301 32 24 48v24c5.33301 40 12 60 20 60l4 56l-4 28l8 24l-4 44c5.33301 6 8 20.667 8 44h4l-4 12c0 45.333 8 77.333 24 96v52c0 6.66699 20 24 60 52zM153.001 1340
l60.001 0.00195312c39.333 0 74 -24 104 -72c0 -16 -34.667 -24 -104 -24c-36.667 -14.667 -58 -29.334 -64 -44.001c14.667 -34.667 45.334 -52 92.001 -52c38.667 0 82.667 10.667 132 32c17.333 0 26.666 -24 27.999 -72v-12c0 -14.667 -44 -36 -132 -64
c-40 -28.667 -70.667 -55.334 -92 -80.001h-8c-37.333 22.667 -56 46.667 -56 72l12 40c-24 38 -36 71.333 -36 100v68c5.33301 72 26.666 108 63.999 108z" />
    <glyph glyph-name="uFEF9" unicode="&#xfedf;&#xfe88;" horiz-adv-x="1062" arabic-form="isolated" 
d="M318 1205c29.333 0 43.9971 -13.333 43.9971 -40c16 -9.33301 28 -25.333 36 -48c12 -3.33301 26.667 -24.666 44 -63.999c24.667 -38.667 40.667 -76 48 -112c17.333 0 36 -24 56 -72c13.333 -10 25.333 -32.667 36 -68c7.33301 0 14 -16 20 -48l32 -64
c10.667 0 24 -25.333 40 -76c10.667 0 38.667 -41.333 84 -124c20.667 -23.333 31.334 -42 32.001 -56h12l24 -8c48 103.333 72 183.333 72 240l-4 20l8 16l-4 20v28l4 44l-4 4v4l4 44v8c0 34 -10.667 87.333 -32 160v8c0 18 6.66699 42 20 72l28 56
c0 34.667 10.667 52 32 52c43.333 0 67.333 -26.667 72 -80c24 -34.667 36 -61.334 36 -80.001c-11.333 -98.667 -30 -148 -56 -148v-8h4c-2.66699 -45.333 -9.33398 -84 -20.001 -116l4 -4v-8l-4 -4l4 -4l-28 -136c-3.33301 -27.333 -7.33301 -43.333 -12 -48l4 -4v-4
c-7.33301 -39.333 -24.666 -80.666 -51.999 -123.999l-32 -76l-12 -36c16 -37.333 24 -93.333 24 -168c0 -28.667 -25.333 -74 -76 -136c-22.667 -18.667 -46.667 -28 -72 -28c-2.66699 -9.33301 -26.667 -18.666 -72 -27.999v4l-20 -12h-4l-12 4l-16 -4
c-66.667 3.33301 -100 12.666 -100 27.999l4 4c-13.333 0 -24 14.667 -32 44c0 35.333 10.667 59.333 32 72c8.66699 11.333 28.667 26 60 44c2.66699 8.66699 16 18 40 28c33.333 10.667 60 32 80 64c13.333 29.333 20 52 20 68c-5.33301 1.33301 -34.666 60 -87.999 176
h-8c-6 20.667 -18 40.667 -36 60c-11.333 33.333 -27.333 61.333 -48 84c-10 30 -26 56.667 -48 80l-84 156h-24c-9.33301 -8 -34.666 -12 -75.999 -12c-32 32 -56 81.333 -72 148v4c0 15.333 16 68.666 48 159.999l-4 12c8 0 12 6.66699 12 20zM265.997 -1
l60.001 0.00195312c39.333 0 74 -24 104 -72c0 -16 -34.667 -24 -104 -24c-36.667 -14.667 -58 -29.334 -64 -44.001c14.667 -34.667 45.334 -52 92.001 -52c38.667 0 82.667 10.667 132 32c17.333 0 26.666 -24 27.999 -72v-12c0 -14.667 -44 -36 -132 -64
c-40 -28.667 -70.667 -55.334 -92 -80.001h-8c-37.333 22.667 -56 46.667 -56 72l12 40c-24 38 -36 71.333 -36 100v68c5.33301 72 26.666 108 63.999 108z" />
    <glyph glyph-name="uFEFA" unicode="&#xfee0;&#xfe88;" horiz-adv-x="1155" arabic-form="final" 
d="M935 1172c42.667 -4 64.001 -23.998 64.001 -59.998l4 -12l-12 -100l8 -36l-4 -44v-12l-4 -4l8 -24v-44l-8 -84l16 -100l-4 -24l4 -44l-4 -28c16 -86.667 25.333 -165.334 28 -236.001c0 -34.667 18.667 -62.667 56 -84c0 -6.66699 18.667 -26.667 56 -60
c10.667 -28 16 -66.667 16 -116c0 -17.333 -17.333 -36 -52 -56h-4c-7.33301 0 -46 33.333 -116 100c0 21.333 -14.667 40 -44 56c-29.333 82.667 -52 164 -68 244l-4 24c1.33301 26.667 4 40 8 40c-4.66699 40 -11.334 60 -20.001 60s-34 -62.667 -76 -188
c0 -16 -8 -34.667 -24 -56l4 -12c-8 -8 -14.667 -41.333 -20 -100c-13.333 -40.667 -32 -75.334 -56 -104.001c-14.667 -47.333 -28 -78 -40 -92l4 -12c-30.667 -52 -60 -81.333 -88 -88c0 -7.33301 -21.333 -14 -64 -20c-2 -7.33301 -18 -16.666 -48 -27.999h-104
c-53.333 0 -80 6.66699 -80 20v4c0 12.667 6.66699 28.667 20 48c0 10.667 8 16 24 16c0 8 5.33301 12 16 12c0 10.667 16 20 48 28c0 5.33301 13.333 16 40 32l4 -4v-4l28 28l16 -4c14 21.333 30 32 48 32c6.66699 25.333 26.667 49.333 60 72
c0 7.33301 12 24.666 36 51.999l4 44c-4.66699 47.333 -15.334 87.333 -32.001 120c0 32.667 -26.667 88.667 -80 168c-73.333 90.667 -117.333 136 -132 136l-32 16c-26 -21.333 -44.667 -32 -56 -32c-31.333 0 -52.666 24 -63.999 72c0 6.66699 -10.667 25.334 -32 56.001
l-8 60l8 80l-4 16c6.66699 21.333 17.334 32 32.001 32c53.333 0 90.666 -21.333 111.999 -64c86.667 -60 137.334 -110.667 152.001 -152c18 0 38 -26.667 60 -80c26 -14 47.333 -38 64 -72c0 -20.667 12 -39.334 36 -56.001l36 -112c11.333 -32 24.666 -48 39.999 -48
l12 20l-4 20c0 8 9.33301 26.667 28 56c0 50 14.667 96.667 44 140l-4 4v8l12 20l-4 20c1.33301 16 9.33301 32 24 48v24c5.33301 40 12 60 20 60l4 56l-4 28l8 24l-4 44c5.33301 6 8 20.667 8 44h4l-4 12c0 45.333 8 77.333 24 96v52c0 6.66699 20 24 60 52z
M287.001 -245.998l60.001 0.00195312c39.333 0 74 -24 104 -72c0 -16 -34.667 -24 -104 -24c-36.667 -14.667 -58 -29.334 -64 -44.001c14.667 -34.667 45.334 -52 92.001 -52c38.667 0 82.667 10.667 132 32c17.333 0 26.666 -24 27.999 -72v-12
c0 -14.667 -44 -36 -132 -64c-40 -28.667 -70.667 -55.334 -92 -80.001h-8c-37.333 22.667 -56 46.667 -56 72l12 40c-24 38 -36 71.333 -36 100v68c5.33301 72 26.666 108 63.999 108z" />
    <glyph glyph-name="uFEFB" unicode="&#xfedf;&#xfe8e;" horiz-adv-x="1062" arabic-form="isolated" 
d="M318 1205c29.333 0 43.9971 -13.333 43.9971 -40c16 -9.33301 28 -25.333 36 -48c12 -3.33301 26.667 -24.666 44 -63.999c24.667 -38.667 40.667 -76 48 -112c17.333 0 36 -24 56 -72c13.333 -10 25.333 -32.667 36 -68c7.33301 0 14 -16 20 -48l32 -64
c10.667 0 24 -25.333 40 -76c10.667 0 38.667 -41.333 84 -124c20.667 -23.333 31.334 -42 32.001 -56h12l24 -8c48 103.333 72 183.333 72 240l-4 20l8 16l-4 20v28l4 44l-4 4v4l4 44v8c0 34 -10.667 87.333 -32 160v8c0 18 6.66699 42 20 72l28 56
c0 34.667 10.667 52 32 52c43.333 0 67.333 -26.667 72 -80c24 -34.667 36 -61.334 36 -80.001c-11.333 -98.667 -30 -148 -56 -148v-8h4c-2.66699 -45.333 -9.33398 -84 -20.001 -116l4 -4v-8l-4 -4l4 -4l-28 -136c-3.33301 -27.333 -7.33301 -43.333 -12 -48l4 -4v-4
c-7.33301 -39.333 -24.666 -80.666 -51.999 -123.999l-32 -76l-12 -36c16 -37.333 24 -93.333 24 -168c0 -28.667 -25.333 -74 -76 -136c-22.667 -18.667 -46.667 -28 -72 -28c-2.66699 -9.33301 -26.667 -18.666 -72 -27.999v4l-20 -12h-4l-12 4l-16 -4
c-66.667 3.33301 -100 12.666 -100 27.999l4 4c-13.333 0 -24 14.667 -32 44c0 35.333 10.667 59.333 32 72c8.66699 11.333 28.667 26 60 44c2.66699 8.66699 16 18 40 28c33.333 10.667 60 32 80 64c13.333 29.333 20 52 20 68c-5.33301 1.33301 -34.666 60 -87.999 176
h-8c-6 20.667 -18 40.667 -36 60c-11.333 33.333 -27.333 61.333 -48 84c-10 30 -26 56.667 -48 80l-84 156h-24c-9.33301 -8 -34.666 -12 -75.999 -12c-32 32 -56 81.333 -72 148v4c0 15.333 16 68.666 48 159.999l-4 12c8 0 12 6.66699 12 20z" />
    <glyph glyph-name="uFEFC" unicode="&#xfee0;&#xfe8e;" horiz-adv-x="1155" arabic-form="final" 
d="M935 1172c42.667 -4 64.001 -23.998 64.001 -59.998l4 -12l-12 -100l8 -36l-4 -44v-12l-4 -4l8 -24v-44l-8 -84l16 -100l-4 -24l4 -44l-4 -28c16 -86.667 25.333 -165.334 28 -236.001c0 -34.667 18.667 -62.667 56 -84c0 -6.66699 18.667 -26.667 56 -60
c10.667 -28 16 -66.667 16 -116c0 -17.333 -17.333 -36 -52 -56h-4c-7.33301 0 -46 33.333 -116 100c0 21.333 -14.667 40 -44 56c-29.333 82.667 -52 164 -68 244l-4 24c1.33301 26.667 4 40 8 40c-4.66699 40 -11.334 60 -20.001 60s-34 -62.667 -76 -188
c0 -16 -8 -34.667 -24 -56l4 -12c-8 -8 -14.667 -41.333 -20 -100c-13.333 -40.667 -32 -75.334 -56 -104.001c-14.667 -47.333 -28 -78 -40 -92l4 -12c-30.667 -52 -60 -81.333 -88 -88c0 -7.33301 -21.333 -14 -64 -20c-2 -7.33301 -18 -16.666 -48 -27.999h-104
c-53.333 0 -80 6.66699 -80 20v4c0 12.667 6.66699 28.667 20 48c0 10.667 8 16 24 16c0 8 5.33301 12 16 12c0 10.667 16 20 48 28c0 5.33301 13.333 16 40 32l4 -4v-4l28 28l16 -4c14 21.333 30 32 48 32c6.66699 25.333 26.667 49.333 60 72
c0 7.33301 12 24.666 36 51.999l4 44c-4.66699 47.333 -15.334 87.333 -32.001 120c0 32.667 -26.667 88.667 -80 168c-73.333 90.667 -117.333 136 -132 136l-32 16c-26 -21.333 -44.667 -32 -56 -32c-31.333 0 -52.666 24 -63.999 72c0 6.66699 -10.667 25.334 -32 56.001
l-8 60l8 80l-4 16c6.66699 21.333 17.334 32 32.001 32c53.333 0 90.666 -21.333 111.999 -64c86.667 -60 137.334 -110.667 152.001 -152c18 0 38 -26.667 60 -80c26 -14 47.333 -38 64 -72c0 -20.667 12 -39.334 36 -56.001l36 -112c11.333 -32 24.666 -48 39.999 -48
l12 20l-4 20c0 8 9.33301 26.667 28 56c0 50 14.667 96.667 44 140l-4 4v8l12 20l-4 20c1.33301 16 9.33301 32 24 48v24c5.33301 40 12 60 20 60l4 56l-4 28l8 24l-4 44c5.33301 6 8 20.667 8 44h4l-4 12c0 45.333 8 77.333 24 96v52c0 6.66699 20 24 60 52z" />
    <glyph glyph-name="u0652_u064E.liga" unicode="&#x652;&#x64e;" horiz-adv-x="1" 
d="M224 969c0.666992 -2 0.99707 -5 0.99707 -9c0 -30 -7.33301 -56 -22 -78c-1.33301 -2 -3.66602 -3 -6.99902 -3s-4.66602 1.66699 -3.99902 5c2.66699 25.333 0.333984 65.333 -6.99902 120c-2 16 -6 44.333 -12 85c-3.33301 26 -5 50.667 -5 74c0 4 4 12 12 24
c13.333 18.667 22.333 28 27 28c3.33301 0 4.33301 -4.33301 3 -13c-0.666992 -9.33301 -1 -20.333 -1 -33c0 -32 5 -98.667 15 -200z" />
    <glyph glyph-name="u0652_u064B.liga" unicode="&#x652;&#x64b;" horiz-adv-x="1" 
d="M547 803l-79 -121l-123 81l-65 -101l-129 89l82 129l120 -81l61 95z" />
    <glyph glyph-name="u0652_u064D.liga" unicode="&#x652;&#x64d;" horiz-adv-x="1" 
d="M809 -702l-79 -121l-123 81l-65 -101l-129 89l82 129l120 -81l61 95z" />
    <glyph glyph-name="u0622" unicode="&#x622;" horiz-adv-x="753" arabic-form="isolated" 
d="M206 1498l11.999 -4.00195l16 4c31.333 -16 74 -24 128 -24c10.667 -10.667 25.334 -16 44.001 -16c16 10.667 38.667 17.334 68 20.001l52 -16l32 12l20 -8l16 4l32 -4c6 13.333 12.667 20 20 20l60 -20c2.66699 -21.333 10.667 -40 24 -56l4 -48
c-4.66699 -5.33301 -38 -14.666 -100 -27.999c0 -6.66699 -32 -13.334 -96 -20.001l-12 -8l-44 8l-4 -4h-4l-12 4c-34.667 -2.66699 -52 -6.66699 -52 -12c-70.667 2.66699 -126.667 9.33398 -168 20.001l-4 -4h-4l-4 4c-33.333 0 -69.333 -14.667 -108 -44
c-16 -14.667 -40 -22.667 -72 -24c-5.33301 6 -10.666 26 -15.999 60c37.333 101.333 74.666 152 111.999 152c31.333 21.333 51.333 32 60 32zM397.999 1230c48 -6.66699 72 -29.332 72 -67.999l-4 -28l4 -24l-4 -48l8 -92l-4 -28l32 -160l-16 -40l4 -4v-4
c0 -41.333 9.33301 -113.333 28 -216l-4 -4v-4l16 -76l-4 -12c8 -72 16 -117.333 24 -136l-4 -32c10.667 -83.333 20 -134 28 -152c-4 -16 -8 -24 -12 -24c5.33301 -10.667 8 -25.334 8 -44.001v-8l-52 -32h-20c-16 0 -32 44 -48 132l16 36l-28 48l8 12l-8 56v16l4 4
c-13.333 36.667 -22.666 78 -27.999 124l12 56c-6.66699 1.33301 -16 25.333 -28 72l-4 4l8 20l-12 32l4 12c-16 72.667 -24 119.334 -24 140.001v20l4 4c-13.333 14.667 -24 58.667 -32 132l-28 84c-4.66699 0 -7.33398 6.66699 -8.00098 20v8l4 36l-12 48
c5.33301 19.333 16 32.666 32 39.999c18 53.333 40.667 80 68 80z" />
    <glyph glyph-name="u0623" unicode="&#x623;" horiz-adv-x="470" arabic-form="isolated" 
d="M275 1204c13.333 -2.66699 33.334 -26.665 60.001 -71.998v-32l-4 -4l4 -12l-4 -56c2.66699 -40.667 6.66699 -67.334 12 -80.001l-8 -24l24 -212l-8 -56l4 -4v-4l-4 -12l4 -12h-4c9.33301 -16.667 17.333 -47.334 24 -92.001l-4 -28c0 -22 8 -47.333 24 -76
c-16 -20.667 -24 -35.334 -24 -44.001l4 -36l-4 -36l20 -128h-4l4 -4l-4 -68v-60c0 -23.333 -18.667 -40.666 -56 -51.999c-24 8.66699 -36 35.334 -36 80.001v24l4 4c-7.33301 16.667 -14 50 -20 100c-5.33301 0.666992 -9.33301 10 -12 28v40l-16 120l4 24
c-18.667 48 -32 132 -40 252l4 4v4c-8 45.333 -20 86.666 -36 123.999v4l8 44c-8 10 -17.333 52.667 -28 128c-4.66699 0 -7.33398 6.66699 -8.00098 20v28c11.333 69.333 23.333 104 36 104c0 36.667 28 60.667 84 72zM179.001 1631l60.001 0.00195312
c39.333 0 74 -24 104 -72c0 -16 -34.667 -24 -104 -24c-36.667 -14.667 -58 -29.334 -64 -44.001c14.667 -34.667 45.334 -52 92.001 -52c38.667 0 82.667 10.667 132 32c17.333 0 26.666 -24 27.999 -72v-12c0 -14.667 -44 -36 -132 -64
c-40 -28.667 -70.667 -55.334 -92 -80.001h-8c-37.333 22.667 -56 46.667 -56 72l12 40c-24 38 -36 71.333 -36 100v68c5.33301 72 26.666 108 63.999 108z" />
    <glyph glyph-name="u0624" unicode="&#x624;" horiz-adv-x="790" arabic-form="isolated" 
d="M573 516c14 0 36.665 -8.00195 67.998 -24.002c30.667 0 65.334 -32 104.001 -96c29.333 -55.333 44 -126 44 -212c-10.667 -83.333 -20 -135.333 -28 -156l4 -16c0 -17.333 -17.333 -53.333 -52 -108c-22 -48.667 -84.667 -118 -188 -208
c-39.333 -13.333 -70 -26.666 -92 -39.999l-132 8c-42.667 11.333 -64 27.333 -64 48h4l-12 36c6 29.333 18 44 36 44l4 -4h4l88 40c50.667 14.667 93.334 36 128.001 64c18 0 30 5.33301 36 16c10 0 20.667 9.33301 32 28c34.667 4.66699 52 20.667 52 48l56 64
c16 35.333 24 59.333 24 72l-24 24l-20 -4c-70 0 -108.667 -5.33301 -116 -16h-4c-12.667 13.333 -38 25.333 -76 36c-18.667 22 -28 42 -28 60v88c13.333 30 20 64.667 20 104c18.667 16 36 40 52 72c11.333 10.667 38 21.334 80 32.001zM510.998 981.998
l60.001 0.00195312c39.333 0 74 -24 104 -72c0 -16 -34.667 -24 -104 -24c-36.667 -14.667 -58 -29.334 -64 -44.001c14.667 -34.667 45.334 -52 92.001 -52c38.667 0 82.667 10.667 132 32c17.333 0 26.666 -24 27.999 -72v-12c0 -14.667 -44 -36 -132 -64
c-40 -28.667 -70.667 -55.334 -92 -80.001h-8c-37.333 22.667 -56 46.667 -56 72l12 40c-24 38 -36 71.333 -36 100v68c5.33301 72 26.666 108 63.999 108z" />
    <glyph glyph-name="u0625" unicode="&#x625;" horiz-adv-x="490" arabic-form="isolated" 
d="M275 1204c13.333 -2.66699 33.334 -26.665 60.001 -71.998v-32l-4 -4l4 -12l-4 -56c2.66699 -40.667 6.66699 -67.334 12 -80.001l-8 -24l24 -212l-8 -56l4 -4v-4l-4 -12l4 -12h-4c9.33301 -16.667 17.333 -47.334 24 -92.001l-4 -28c0 -22 8 -47.333 24 -76
c-16 -20.667 -24 -35.334 -24 -44.001l4 -36l-4 -36l20 -128h-4l4 -4l-4 -68v-60c0 -23.333 -18.667 -40.666 -56 -51.999c-24 8.66699 -36 35.334 -36 80.001v24l4 4c-7.33301 16.667 -14 50 -20 100c-5.33301 0.666992 -9.33301 10 -12 28v40l-16 120l4 24
c-18.667 48 -32 132 -40 252l4 4v4c-8 45.333 -20 86.666 -36 123.999v4l8 44c-8 10 -17.333 52.667 -28 128c-4.66699 0 -7.33398 6.66699 -8.00098 20v28c11.333 69.333 23.333 104 36 104c0 36.667 28 60.667 84 72zM247.001 -111.998l60.001 0.00195312
c39.333 0 74 -24 104 -72c0 -16 -34.667 -24 -104 -24c-36.667 -14.667 -58 -29.334 -64 -44.001c14.667 -34.667 45.334 -52 92.001 -52c38.667 0 82.667 10.667 132 32c17.333 0 26.666 -24 27.999 -72v-12c0 -14.667 -44 -36 -132 -64
c-40 -28.667 -70.667 -55.334 -92 -80.001h-8c-37.333 22.667 -56 46.667 -56 72l12 40c-24 38 -36 71.333 -36 100v68c5.33301 72 26.666 108 63.999 108z" />
    <glyph glyph-name="u0626" unicode="&#x626;" horiz-adv-x="1306" arabic-form="isolated" 
d="M1106 667l16 0.000976562c28 0 50.667 -10.667 68 -32c20 0 44 -22.667 72 -68h4l-4 -48v-28c0 -21.333 -10.667 -32 -32 -32h-4l-80 32l-16 -4l-44 8l-64 -28l-12 4c-21.333 -31.333 -54.666 -67.333 -99.999 -108c-29.333 -53.333 -44 -88 -44 -104
c22 -16 44.667 -25.333 68 -28c13.333 -8.66699 20 -16.667 20 -24h12c14 0 43.333 -9.33301 88 -28l48 -12c6 -0.666992 18 -10 36 -28h12l20 4l28 -80v-8l-39 -110l-69 -90l-60 -48h-8l-4 4h-4c0 -12 -33.333 -22.667 -100 -32c0 -9.33301 -34.667 -20 -104 -32l-4 4
c-69.333 -18.667 -125.333 -28 -168 -28l-24 8h-8l-24 -4c-53.333 8.66699 -98.666 24.667 -135.999 48c-13.333 18.667 -25.333 28 -36 28l-16 -4c-16 2 -32 19.333 -48 52c-10.667 0 -24 13.333 -40 40c-14 6 -24.667 42 -32 108l-4 4c0 77.333 21.333 160 64 248
c5.33301 0 8 18.667 8 56c17.333 16 37.333 44 60 84c10.667 0 24 10.667 40 32h28c18.667 -12.667 28 -30 28 -52c-33.333 -90 -56 -135.333 -68 -136c-13.333 -45.333 -25.333 -113.333 -36 -204c26 -60.667 62 -99.334 108 -116.001l44 -12
c33.333 -16.667 56 -26.667 68 -30h8l36 -6h16l80 20l16 4l16 -4c9.33301 8 21.333 13.333 36 16c53.333 4.66699 90.666 14 111.999 28l68 28c7.33301 17.333 22 36 44 56v4c0 12 -24 20 -72 24c-56 21.333 -101.333 33.333 -136 36c-35.333 15.333 -59.333 38 -72 68
l-24 40v8c16 113.333 42.667 196 80 248c11.333 5.33301 31.333 25.333 60 60l36 40c81.333 72 130.666 108 147.999 108zM334 841.001l60.001 0.00195312c39.333 0 74 -24 104 -72c0 -16 -34.667 -24 -104 -24c-36.667 -14.667 -58 -29.334 -64 -44.001
c14.667 -34.667 45.334 -52 92.001 -52c38.667 0 82.667 10.667 132 32c17.333 0 26.666 -24 27.999 -72v-12c0 -14.667 -44 -36 -132 -64c-40 -28.667 -70.667 -55.334 -92 -80.001h-8c-37.333 22.667 -56 46.667 -56 72l12 40c-24 38 -36 71.333 -36 100v68
c5.33301 72 26.666 108 63.999 108z" />
    <glyph glyph-name="u0627" unicode="&#x627;" horiz-adv-x="343" arabic-form="isolated" 
d="M225 1204c13.333 -2.66699 33.334 -26.665 60.001 -71.998v-32l-4 -4l4 -12l-4 -56c2.66699 -40.667 6.66699 -67.334 12 -80.001l-8 -24l24 -212l-8 -56l4 -4v-4l-4 -12l4 -12h-4c9.33301 -16.667 17.333 -47.334 24 -92.001l-4 -28c0 -22 8 -47.333 24 -76
c-16 -20.667 -24 -35.334 -24 -44.001l4 -36l-4 -36l20 -128h-4l4 -4l-4 -68v-60c0 -23.333 -18.667 -40.666 -56 -51.999c-24 8.66699 -36 35.334 -36 80.001v24l4 4c-7.33301 16.667 -14 50 -20 100c-5.33301 0.666992 -9.33301 10 -12 28v40l-16 120l4 24
c-18.667 48 -32 132 -40 252l4 4v4c-8 45.333 -20 86.666 -36 123.999v4l8 44c-8 10 -17.333 52.667 -28 128c-4.66699 0 -7.33398 6.66699 -8.00098 20v28c11.333 69.333 23.333 104 36 104c0 36.667 28 60.667 84 72z" />
    <glyph glyph-name="u0628" unicode="&#x628;" horiz-adv-x="1297" arabic-form="isolated" 
d="M1194 574c29.333 0 58.667 -31.999 88 -95.999l8 -76l-4 -20l12 -24v-16l-4 -16l4 -4v-4l-4 -4v-4l4 -24h-4l4 -4v-12c-17.333 -104 -38.666 -156 -63.999 -156c-58 -58.667 -108.667 -88 -152 -88c-10.667 -8 -52 -22.667 -124 -44v4l-4 -4h-44l-52 -24h-48l-4 4
c-13.333 -5.33301 -44 -8 -92 -8h-4c-19.333 0 -30 4 -32 12l-40 -8l-40 4h-12c-9.33301 -8 -25.333 -12 -48 -12h-24l-72 24l-16 4l-4 -4h-4c-82.667 23.333 -124 48.666 -124 75.999c-29.333 15.333 -44 64.666 -44 147.999h4l-4 4l4 40v76c10 56 20.667 84 32 84
c22.667 48 44 72 64 72l38 -30l-4 -20v-4l8 -32c0 -13.333 -6.66699 -25.333 -20 -36l4 -4v-4l-36 -84v-36c52 -53.333 92 -80 120 -80l68 -28c6 5.33301 32.667 9.33301 80 12l4 -4h4l168 12l48 -4c68.667 18.667 112.667 28 132 28c0 4.66699 25.333 11.334 76 20.001
c25.333 5.33301 62.666 20 111.999 44c21.333 0 32 10.667 32 32c0 32 -25.667 77 -77 135l-4 44l33 77c0 16.667 16.667 36 50 58l4 4h4zM834.001 -277.999c7.33301 0 19.333 -12.001 36 -36.001c18.667 -13.333 28 -24 28 -32l-8 -24l4 -28c-9.33301 -48 -32 -72 -68 -72
l-4 4h-4l-48 -20c-12.667 5.33301 -26 25.333 -40 60c-8 0 -14.667 21.333 -20 64c18.667 32 36 48 52 48c0 10.667 17.333 20 52 28c0 4.66699 6.66699 7.33398 20 8.00098z" />
    <glyph glyph-name="u0629" unicode="&#x629;" horiz-adv-x="604" arabic-form="isolated" 
d="M372 451l4 -0.00292969l12 -8l4 4h4c98.667 -17.333 148 -34.666 148 -51.999c37.333 -36 56 -84 56 -144c-14 -85.333 -31.333 -128 -52 -128c-36 -64 -118.667 -96 -248 -96l-96 56c-18.667 20 -28 48 -28 84v8c8 20.667 12 43.334 12 68.001l48 92
c8 0 17.333 9.33301 28 28c7.33301 2.66699 22 21.334 44 56.001c34.667 21.333 56 32 64 32zM308 298.997c-21.333 -23.333 -32 -39.334 -32 -48.001c0 -7.33301 18.667 -12.666 56 -15.999l24 -24h12c26 24 46 36 60 36l12 16c0 13.333 -14.667 24 -44 32l-4 -4h-4z
M310 992.996l60.001 0.00195312c39.333 0 74 -24 104 -72c0 -16 -34.667 -24 -104 -24c-36.667 -14.667 -58 -29.334 -64 -44.001c14.667 -34.667 45.334 -52 92.001 -52c38.667 0 82.667 10.667 132 32c17.333 0 26.666 -24 27.999 -72v-12c0 -14.667 -44 -36 -132 -64
c-40 -28.667 -70.667 -55.334 -92 -80.001h-8c-37.333 22.667 -56 46.667 -56 72l12 40c-24 38 -36 71.333 -36 100v68c5.33301 72 26.666 108 63.999 108z" />
    <glyph glyph-name="u062A" unicode="&#x62a;" horiz-adv-x="1297" arabic-form="isolated" 
d="M694 722c7.33301 0 19.333 -12.001 36 -36.001c18.667 -13.333 28 -24 28 -32l-8 -24l4 -28c-9.33301 -48 -32 -72 -68 -72l-4 4h-4l-48 -20c-12.667 5.33301 -26 25.333 -40 60c-8 0 -14.667 21.333 -20 64c18.667 32 36 48 52 48c0 10.667 17.333 20 52 28
c0 4.66699 6.66699 7.33398 20 8.00098zM894 721.999c7.33301 0 19.333 -12.001 36 -36.001c18.667 -13.333 28 -24 28 -32l-8 -24l4 -28c-9.33301 -48 -32 -72 -68 -72l-4 4h-4l-48 -20c-12.667 5.33301 -26 25.333 -40 60c-8 0 -14.667 21.333 -20 64
c18.667 32 36 48 52 48c0 10.667 17.333 20 52 28c0 4.66699 6.66699 7.33398 20 8.00098zM1194 573.998c29.333 0 58.667 -31.999 88 -95.999l8 -76l-4 -20l12 -24v-16l-4 -16l4 -4v-4l-4 -4v-4l4 -24h-4l4 -4v-12c-17.333 -104 -38.666 -156 -63.999 -156
c-58 -58.667 -108.667 -88 -152 -88c-10.667 -8 -52 -22.667 -124 -44v4l-4 -4h-44l-52 -24h-48l-4 4c-13.333 -5.33301 -44 -8 -92 -8h-4c-19.333 0 -30 4 -32 12l-40 -8l-40 4h-12c-9.33301 -8 -25.333 -12 -48 -12h-24l-72 24l-16 4l-4 -4h-4
c-82.667 23.333 -124 48.666 -124 75.999c-29.333 15.333 -44 64.666 -44 147.999h4l-4 4l4 40v76c10 56 20.667 84 32 84c22.667 48 44 72 64 72l38 -30l-4 -20v-4l8 -32c0 -13.333 -6.66699 -25.333 -20 -36l4 -4v-4l-36 -84v-36c52 -53.333 92 -80 120 -80l68 -28
c6 5.33301 32.667 9.33301 80 12l4 -4h4l168 12l48 -4c68.667 18.667 112.667 28 132 28c0 4.66699 25.333 11.334 76 20.001c25.333 5.33301 62.666 20 111.999 44c21.333 0 32 10.667 32 32c0 32 -25.667 77 -77 135l-4 44l33 77c0 16.667 16.667 36 50 58l4 4h4z" />
    <glyph glyph-name="u062B" unicode="&#x62b;" horiz-adv-x="1297" arabic-form="isolated" 
d="M664 532c-34.667 8 -52 17.332 -52 27.999c-16 0 -33.333 16 -52 48c5.33301 42.667 12 64 20 64c14 34.667 27.333 54.667 40 60l48 -20h4l4 4c36 0 58.667 -24 68 -72l-4 -28l8 -24c0 -8 -9.33301 -18.667 -28 -32c-16.667 -24 -28.667 -36 -36 -36
c-13.333 0.666992 -20 3.33398 -20 8.00098zM754 721.999c-34.667 8 -52 17.332 -52 27.999c-16 0 -33.333 16 -52 48c5.33301 42.667 12 64 20 64c14 34.667 27.333 54.667 40 60l48 -20h4l4 4c36 0 58.667 -24 68 -72l-4 -28l8 -24c0 -8 -9.33301 -18.667 -28 -32
c-16.667 -24 -28.667 -36 -36 -36c-13.333 0.666992 -20 3.33398 -20 8.00098zM864 531.998c-34.667 8 -52 17.332 -52 27.999c-16 0 -33.333 16 -52 48c5.33301 42.667 12 64 20 64c14 34.667 27.333 54.667 40 60l48 -20h4l4 4c36 0 58.667 -24 68 -72l-4 -28l8 -24
c0 -8 -9.33301 -18.667 -28 -32c-16.667 -24 -28.667 -36 -36 -36c-13.333 0.666992 -20 3.33398 -20 8.00098zM1194 573.997c29.333 0 58.667 -31.999 88 -95.999l8 -76l-4 -20l12 -24v-16l-4 -16l4 -4v-4l-4 -4v-4l4 -24h-4l4 -4v-12
c-17.333 -104 -38.666 -156 -63.999 -156c-58 -58.667 -108.667 -88 -152 -88c-10.667 -8 -52 -22.667 -124 -44v4l-4 -4h-44l-52 -24h-48l-4 4c-13.333 -5.33301 -44 -8 -92 -8h-4c-19.333 0 -30 4 -32 12l-40 -8l-40 4h-12c-9.33301 -8 -25.333 -12 -48 -12h-24l-72 24
l-16 4l-4 -4h-4c-82.667 23.333 -124 48.666 -124 75.999c-29.333 15.333 -44 64.666 -44 147.999h4l-4 4l4 40v76c10 56 20.667 84 32 84c22.667 48 44 72 64 72l38 -30l-4 -20v-4l8 -32c0 -13.333 -6.66699 -25.333 -20 -36l4 -4v-4l-36 -84v-36
c52 -53.333 92 -80 120 -80l68 -28c6 5.33301 32.667 9.33301 80 12l4 -4h4l168 12l48 -4c68.667 18.667 112.667 28 132 28c0 4.66699 25.333 11.334 76 20.001c25.333 5.33301 62.666 20 111.999 44c21.333 0 32 10.667 32 32c0 32 -25.667 77 -77 135l-4 44l33 77
c0 16.667 16.667 36 50 58l4 4h4z" />
    <glyph glyph-name="u062C" unicode="&#x62c;" horiz-adv-x="1006" arabic-form="isolated" 
d="M363 473l87.998 -0.000976562c12.667 -6.66699 54 -13.334 124 -20.001h32l12 -8l264 -4h16l44 8h4c45.333 -10.667 68 -26.667 68 -48v-16c-19.333 -82.667 -48.666 -124 -87.999 -124h-36l-12 4l-20 -4h-8l-156 -4
c-125.333 -56.667 -194.666 -95.334 -207.999 -116.001c-7.33301 0 -31.333 -22.667 -72 -68c-36 -32 -70.667 -85.333 -104 -160l-24 -68l-16 -116c0 -89.333 25.333 -150.666 76 -183.999c36 -38 78.667 -63.333 128 -76c100 -32 165.333 -48 196 -48l44 4v-4l104 20
l20 -4h20c4 4.66699 37.333 11.334 100 20.001c27.333 13.333 52.666 20 75.999 20h8l12 -12v-20c0 -43.333 -20 -70 -60 -80c-17.333 -15.333 -93.333 -46 -228 -92l-96 -12l-12 4l-20 -4l-16 4c-10.667 -5.33301 -25.334 -8 -44.001 -8h-40
c-62.667 7.33301 -114.667 24.666 -156 51.999c-27.333 12.667 -51.333 27.334 -72 44.001c-52.667 30 -94 112.667 -124 248c0 48 -2.66699 81.333 -8 100c11.333 72.667 24.666 135.334 39.999 188.001l40 108c24.667 54 51.334 100.667 80.001 140c16 28.667 36 50 60 64
c0 6.66699 28 33.334 84 80.001v12h-40l-32 8h-4c-74.667 -10 -112 -20.667 -112 -32c-9.33301 -6 -26.666 -36.667 -51.999 -92l-20 -16h-8c-21.333 7.33301 -34.666 16.666 -39.999 27.999v64c8 15.333 18.667 51.333 32 108c48 74.667 100 112 156 112zM714.998 -109.001
c7.33301 0 19.333 -12.001 36 -36.001c18.667 -13.333 28 -24 28 -32l-8 -24l4 -28c-9.33301 -48 -32 -72 -68 -72l-4 4h-4l-48 -20c-12.667 5.33301 -26 25.333 -40 60c-8 0 -14.667 21.333 -20 64c18.667 32 36 48 52 48c0 10.667 17.333 20 52 28
c0 4.66699 6.66699 7.33398 20 8.00098z" />
    <glyph glyph-name="u062D" unicode="&#x62d;" horiz-adv-x="1006" arabic-form="isolated" 
d="M363 473l87.998 -0.000976562c12.667 -6.66699 54 -13.334 124 -20.001h32l12 -8l264 -4h16l44 8h4c45.333 -10.667 68 -26.667 68 -48v-16c-19.333 -82.667 -48.666 -124 -87.999 -124h-36l-12 4l-20 -4h-8l-156 -4
c-125.333 -56.667 -194.666 -95.334 -207.999 -116.001c-7.33301 0 -31.333 -22.667 -72 -68c-36 -32 -70.667 -85.333 -104 -160l-24 -68l-16 -116c0 -89.333 25.333 -150.666 76 -183.999c36 -38 78.667 -63.333 128 -76c100 -32 165.333 -48 196 -48l44 4v-4l104 20
l20 -4h20c4 4.66699 37.333 11.334 100 20.001c27.333 13.333 52.666 20 75.999 20h8l12 -12v-20c0 -43.333 -20 -70 -60 -80c-17.333 -15.333 -93.333 -46 -228 -92l-96 -12l-12 4l-20 -4l-16 4c-10.667 -5.33301 -25.334 -8 -44.001 -8h-40
c-62.667 7.33301 -114.667 24.666 -156 51.999c-27.333 12.667 -51.333 27.334 -72 44.001c-52.667 30 -94 112.667 -124 248c0 48 -2.66699 81.333 -8 100c11.333 72.667 24.666 135.334 39.999 188.001l40 108c24.667 54 51.334 100.667 80.001 140c16 28.667 36 50 60 64
c0 6.66699 28 33.334 84 80.001v12h-40l-32 8h-4c-74.667 -10 -112 -20.667 -112 -32c-9.33301 -6 -26.666 -36.667 -51.999 -92l-20 -16h-8c-21.333 7.33301 -34.666 16.666 -39.999 27.999v64c8 15.333 18.667 51.333 32 108c48 74.667 100 112 156 112z" />
    <glyph glyph-name="u062E" unicode="&#x62e;" horiz-adv-x="1006" arabic-form="isolated" 
d="M363 473l87.998 -0.000976562c12.667 -6.66699 54 -13.334 124 -20.001h32l12 -8l264 -4h16l44 8h4c45.333 -10.667 68 -26.667 68 -48v-16c-19.333 -82.667 -48.666 -124 -87.999 -124h-36l-12 4l-20 -4h-8l-156 -4
c-125.333 -56.667 -194.666 -95.334 -207.999 -116.001c-7.33301 0 -31.333 -22.667 -72 -68c-36 -32 -70.667 -85.333 -104 -160l-24 -68l-16 -116c0 -89.333 25.333 -150.666 76 -183.999c36 -38 78.667 -63.333 128 -76c100 -32 165.333 -48 196 -48l44 4v-4l104 20
l20 -4h20c4 4.66699 37.333 11.334 100 20.001c27.333 13.333 52.666 20 75.999 20h8l12 -12v-20c0 -43.333 -20 -70 -60 -80c-17.333 -15.333 -93.333 -46 -228 -92l-96 -12l-12 4l-20 -4l-16 4c-10.667 -5.33301 -25.334 -8 -44.001 -8h-40
c-62.667 7.33301 -114.667 24.666 -156 51.999c-27.333 12.667 -51.333 27.334 -72 44.001c-52.667 30 -94 112.667 -124 248c0 48 -2.66699 81.333 -8 100c11.333 72.667 24.666 135.334 39.999 188.001l40 108c24.667 54 51.334 100.667 80.001 140c16 28.667 36 50 60 64
c0 6.66699 28 33.334 84 80.001v12h-40l-32 8h-4c-74.667 -10 -112 -20.667 -112 -32c-9.33301 -6 -26.666 -36.667 -51.999 -92l-20 -16h-8c-21.333 7.33301 -34.666 16.666 -39.999 27.999v64c8 15.333 18.667 51.333 32 108c48 74.667 100 112 156 112zM532.998 822.999
c7.33301 0 19.333 -12.001 36 -36.001c18.667 -13.333 28 -24 28 -32l-8 -24l4 -28c-9.33301 -48 -32 -72 -68 -72l-4 4h-4l-48 -20c-12.667 5.33301 -26 25.333 -40 60c-8 0 -14.667 21.333 -20 64c18.667 32 36 48 52 48c0 10.667 17.333 20 52 28
c0 4.66699 6.66699 7.33398 20 8.00098z" />
    <glyph glyph-name="u062F" unicode="&#x62f;" horiz-adv-x="729" arabic-form="isolated" 
d="M443 678c19.333 -6 44.667 -21.998 76 -47.998c72 -39.333 125.333 -106 160 -200c4 0 16 -22.667 36 -68l-4 -4v-4l16 -76v-8c0 -18.667 -2.66699 -33.334 -8 -44.001l4 -16c0 -14.667 -9.33301 -40 -28 -76c0 -28.667 -66.667 -68.667 -200 -120l-64 -20l-112 -8
c-16 0 -24 2.66699 -24 8l-12 -4c-48 0 -72 21.333 -72 64c-3.33301 0 -6 12 -8 36h4l-4 4v4l4 4v4l-4 12l4 4v4l-4 4v4c0 32 14.667 48 44 48v4l164 -20l16 4l12 -4l24 4l4 -4h4c0 4 26.667 14.667 80 32c53.333 32 80 57.333 80 76v12
c-112 127.333 -201.333 200.666 -268 219.999c-16 17.333 -24 32 -24 44c4 24 8 36 12 36l-4 4v4c23.333 56 55.333 84 96 84z" />
    <glyph glyph-name="u0630" unicode="&#x630;" horiz-adv-x="729" arabic-form="isolated" 
d="M443 678c19.333 -6 44.667 -21.998 76 -47.998c72 -39.333 125.333 -106 160 -200c4 0 16 -22.667 36 -68l-4 -4v-4l16 -76v-8c0 -18.667 -2.66699 -33.334 -8 -44.001l4 -16c0 -14.667 -9.33301 -40 -28 -76c0 -28.667 -66.667 -68.667 -200 -120l-64 -20l-112 -8
c-16 0 -24 2.66699 -24 8l-12 -4c-48 0 -72 21.333 -72 64c-3.33301 0 -6 12 -8 36h4l-4 4v4l4 4v4l-4 12l4 4v4l-4 4v4c0 32 14.667 48 44 48v4l164 -20l16 4l12 -4l24 4l4 -4h4c0 4 26.667 14.667 80 32c53.333 32 80 57.333 80 76v12
c-112 127.333 -201.333 200.666 -268 219.999c-16 17.333 -24 32 -24 44c4 24 8 36 12 36l-4 4v4c23.333 56 55.333 84 96 84zM344.001 951.002c7.33301 0 19.333 -12.001 36 -36.001c18.667 -13.333 28 -24 28 -32l-8 -24l4 -28c-9.33301 -48 -32 -72 -68 -72l-4 4h-4
l-48 -20c-12.667 5.33301 -26 25.333 -40 60c-8 0 -14.667 21.333 -20 64c18.667 32 36 48 52 48c0 10.667 17.333 20 52 28c0 4.66699 6.66699 7.33398 20 8.00098z" />
    <glyph glyph-name="u0631" unicode="&#x631;" horiz-adv-x="702" arabic-form="isolated" 
d="M531 440c40.667 0 86 -34.665 136 -103.998c10 0 24.667 -48 44 -144v-20c-21.333 -125.333 -41.333 -188 -60 -188c0 -9.33301 -20 -44 -60 -104l-136 -156c-6.66699 0 -41.334 -22.667 -104.001 -68l-68 -20h-16c-42.667 0 -90.667 30.667 -144 92
c-10 11.333 -19.333 32.666 -28 63.999c0 21.333 56 32 168 32c52 0 132 37.333 240 112c47.333 46 78 98 92 156l8 44c-13.333 37.333 -30.666 58.666 -51.999 63.999c0 4.66699 -24 24.667 -72 60l-20 56c0 42 20 83.333 60 124h12z" />
    <glyph glyph-name="u0632" unicode="&#x632;" horiz-adv-x="702" arabic-form="isolated" 
d="M531 440c40.667 0 86 -34.665 136 -103.998c10 0 24.667 -48 44 -144v-20c-21.333 -125.333 -41.333 -188 -60 -188c0 -9.33301 -20 -44 -60 -104l-136 -156c-6.66699 0 -41.334 -22.667 -104.001 -68l-68 -20h-16c-42.667 0 -90.667 30.667 -144 92
c-10 11.333 -19.333 32.666 -28 63.999c0 21.333 56 32 168 32c52 0 132 37.333 240 112c47.333 46 78 98 92 156l8 44c-13.333 37.333 -30.666 58.666 -51.999 63.999c0 4.66699 -24 24.667 -72 60l-20 56c0 42 20 83.333 60 124h12zM435 731.002
c7.33301 0 19.333 -12.001 36 -36.001c18.667 -13.333 28 -24 28 -32l-8 -24l4 -28c-9.33301 -48 -32 -72 -68 -72l-4 4h-4l-48 -20c-12.667 5.33301 -26 25.333 -40 60c-8 0 -14.667 21.333 -20 64c18.667 32 36 48 52 48c0 10.667 17.333 20 52 28
c0 4.66699 6.66699 7.33398 20 8.00098z" />
    <glyph glyph-name="u0633" unicode="&#x633;" horiz-adv-x="1391" arabic-form="isolated" 
d="M1344 419c26.667 -39.333 40.002 -94.001 40.002 -164.001c-8.66699 -38.667 -35.334 -76 -80.001 -112c-15.333 -15.333 -40.666 -26 -75.999 -32c-34.667 5.33301 -56 12 -64 20h-4c-10 0 -42 -22.667 -96 -68c-31.333 0 -48.666 -18.667 -51.999 -56l12 -84
c-6.66699 -58.667 -12 -88 -16 -88l4 -12c-35.333 -126 -82 -215.333 -140 -268c-6 -0.666992 -31.333 -23.334 -76 -68.001c-10 0 -55.333 -16 -136 -48c-8 0 -12 -2.66699 -12 -8l-12 4l-44 -4h-12l-20 -12c-100.667 0 -195.334 25.333 -284.001 76l-36 48
c0 8 -6.66699 18.667 -20 32c-16 46 -24 92.667 -24 140c9.33301 192 40 288 92 288c11.333 -3.33301 19.333 -10 24 -20v-16c-8.66699 -18 -15.334 -63.333 -20.001 -136v-24c0 -86.667 33.333 -146.667 100 -180l44 -16l24 -4l4 4l116 -8
c101.333 13.333 162.666 29.333 183.999 48c101.333 56.667 152 119.334 152 188.001v28c0 33.333 -10.667 68 -32 104c0 8.66699 -22.667 39.334 -68 92.001l-36 76v20c0 44 29.333 78.667 88 104l12 4c52 -45.333 84 -68 96 -68h4c58.667 12 88 34.667 88 68
c50.667 56 82.667 84 96 84c18.667 0 28 -17.333 28 -52c6.66699 -24 18.667 -36 36 -36c21.333 0 32 18.667 32 56l-12 36c20 32.667 49.333 54 88 64h8z" />
    <glyph glyph-name="u0634" unicode="&#x634;" horiz-adv-x="1391" arabic-form="isolated" 
d="M1344 419c26.667 -39.333 40.002 -94.001 40.002 -164.001c-8.66699 -38.667 -35.334 -76 -80.001 -112c-15.333 -15.333 -40.666 -26 -75.999 -32c-34.667 5.33301 -56 12 -64 20h-4c-10 0 -42 -22.667 -96 -68c-31.333 0 -48.666 -18.667 -51.999 -56l12 -84
c-6.66699 -58.667 -12 -88 -16 -88l4 -12c-35.333 -126 -82 -215.333 -140 -268c-6 -0.666992 -31.333 -23.334 -76 -68.001c-10 0 -55.333 -16 -136 -48c-8 0 -12 -2.66699 -12 -8l-12 4l-44 -4h-12l-20 -12c-100.667 0 -195.334 25.333 -284.001 76l-36 48
c0 8 -6.66699 18.667 -20 32c-16 46 -24 92.667 -24 140c9.33301 192 40 288 92 288c11.333 -3.33301 19.333 -10 24 -20v-16c-8.66699 -18 -15.334 -63.333 -20.001 -136v-24c0 -86.667 33.333 -146.667 100 -180l44 -16l24 -4l4 4l116 -8
c101.333 13.333 162.666 29.333 183.999 48c101.333 56.667 152 119.334 152 188.001v28c0 33.333 -10.667 68 -32 104c0 8.66699 -22.667 39.334 -68 92.001l-36 76v20c0 44 29.333 78.667 88 104l12 4c52 -45.333 84 -68 96 -68h4c58.667 12 88 34.667 88 68
c50.667 56 82.667 84 96 84c18.667 0 28 -17.333 28 -52c6.66699 -24 18.667 -36 36 -36c21.333 0 32 18.667 32 56l-12 36c20 32.667 49.333 54 88 64h8zM977.002 509.999c-34.667 8 -52 17.332 -52 27.999c-16 0 -33.333 16 -52 48c5.33301 42.667 12 64 20 64
c14 34.667 27.333 54.667 40 60l48 -20h4l4 4c36 0 58.667 -24 68 -72l-4 -28l8 -24c0 -8 -9.33301 -18.667 -28 -32c-16.667 -24 -28.667 -36 -36 -36c-13.333 0.666992 -20 3.33398 -20 8.00098zM1067 699.998c-34.667 8 -52 17.332 -52 27.999c-16 0 -33.333 16 -52 48
c5.33301 42.667 12 64 20 64c14 34.667 27.333 54.667 40 60l48 -20h4l4 4c36 0 58.667 -24 68 -72l-4 -28l8 -24c0 -8 -9.33301 -18.667 -28 -32c-16.667 -24 -28.667 -36 -36 -36c-13.333 0.666992 -20 3.33398 -20 8.00098zM1177 509.997
c-34.667 8 -52 17.332 -52 27.999c-16 0 -33.333 16 -52 48c5.33301 42.667 12 64 20 64c14 34.667 27.333 54.667 40 60l48 -20h4l4 4c36 0 58.667 -24 68 -72l-4 -28l8 -24c0 -8 -9.33301 -18.667 -28 -32c-16.667 -24 -28.667 -36 -36 -36
c-13.333 0.666992 -20 3.33398 -20 8.00098z" />
    <glyph glyph-name="u0635" unicode="&#x635;" horiz-adv-x="1634" arabic-form="isolated" 
d="M1473 473l4 -3.99707l20 4h20l16 -4l4 4h4c61.333 -23.333 92 -63.333 92 -120c0 -119.333 -36 -202 -108 -248c0 -15.333 -62.667 -39.333 -188 -72c-50.667 -13.333 -93.334 -20 -128.001 -20c-66.667 5.33301 -113.334 13.333 -140.001 24
c-42.667 -12 -64 -26.667 -64 -44c6 0 12.667 -28 20 -84l-8 -32l4 -4v-4l-12 -24l4 -4c-16 -62 -32 -100.667 -48 -116c-20.667 -47.333 -70 -94 -148 -140c-34.667 -21.333 -105.334 -41.333 -212.001 -60h-76l-16 -4c-95.333 8 -160.666 22.667 -195.999 44
c-82.667 72 -124 134.667 -124 188l4 4v4l-8 32v4c22.667 186.667 57.334 280 104.001 280h8c21.333 -15.333 32 -34 32 -56c-32 -63.333 -48 -118 -48 -164c0 -90 52 -144.667 156 -164c0 -4 16 -6.66699 48 -8c16 2 24 4.66699 24 8l40 -4h48c86 12.667 131.333 22 136 28
l96 32c8 10 24 19.333 48 28c40 36 60 80 60 132l4 16c0 45.333 -20 110.666 -60 195.999c-24 23.333 -36 44.666 -36 63.999c17.333 66.667 46.666 100 87.999 100l4 4c7.33301 0 42 -29.333 104 -88l32 -8c25.333 17.333 60 50.666 104 99.999
c40.667 28.667 87.334 68.667 140.001 120c34.667 21.333 85.334 41.333 152.001 60zM1365 293.003l-12.001 3.99902c-17.333 -6 -38.666 -19.333 -63.999 -40c-53.333 -39.333 -80 -68.666 -80 -87.999l20 -12l52 8l16 -4l12 4l4 -4h4c66 16 106 29.333 120 40
c44 25.333 70.667 48 80 68v8c-10 21.333 -26 32 -48 32l-12 4h-32c-17.333 0 -37.333 -6.66699 -60 -20z" />
    <glyph glyph-name="u0636" unicode="&#x636;" horiz-adv-x="1634" arabic-form="isolated" 
d="M1473 473l4 -3.99707l20 4h20l16 -4l4 4h4c61.333 -23.333 92 -63.333 92 -120c0 -119.333 -36 -202 -108 -248c0 -15.333 -62.667 -39.333 -188 -72c-50.667 -13.333 -93.334 -20 -128.001 -20c-66.667 5.33301 -113.334 13.333 -140.001 24
c-42.667 -12 -64 -26.667 -64 -44c6 0 12.667 -28 20 -84l-8 -32l4 -4v-4l-12 -24l4 -4c-16 -62 -32 -100.667 -48 -116c-20.667 -47.333 -70 -94 -148 -140c-34.667 -21.333 -105.334 -41.333 -212.001 -60h-76l-16 -4c-95.333 8 -160.666 22.667 -195.999 44
c-82.667 72 -124 134.667 -124 188l4 4v4l-8 32v4c22.667 186.667 57.334 280 104.001 280h8c21.333 -15.333 32 -34 32 -56c-32 -63.333 -48 -118 -48 -164c0 -90 52 -144.667 156 -164c0 -4 16 -6.66699 48 -8c16 2 24 4.66699 24 8l40 -4h48c86 12.667 131.333 22 136 28
l96 32c8 10 24 19.333 48 28c40 36 60 80 60 132l4 16c0 45.333 -20 110.666 -60 195.999c-24 23.333 -36 44.666 -36 63.999c17.333 66.667 46.666 100 87.999 100l4 4c7.33301 0 42 -29.333 104 -88l32 -8c25.333 17.333 60 50.666 104 99.999
c40.667 28.667 87.334 68.667 140.001 120c34.667 21.333 85.334 41.333 152.001 60zM1365 293.003l-12.001 3.99902c-17.333 -6 -38.666 -19.333 -63.999 -40c-53.333 -39.333 -80 -68.666 -80 -87.999l20 -12l52 8l16 -4l12 4l4 -4h4c66 16 106 29.333 120 40
c44 25.333 70.667 48 80 68v8c-10 21.333 -26 32 -48 32l-12 4h-32c-17.333 0 -37.333 -6.66699 -60 -20zM1351 820.002c7.33301 0 19.333 -12.001 36 -36.001c18.667 -13.333 28 -24 28 -32l-8 -24l4 -28c-9.33301 -48 -32 -72 -68 -72l-4 4h-4l-48 -20
c-12.667 5.33301 -26 25.333 -40 60c-8 0 -14.667 21.333 -20 64c18.667 32 36 48 52 48c0 10.667 17.333 20 52 28c0 4.66699 6.66699 7.33398 20 8.00098z" />
    <glyph glyph-name="u0637" unicode="&#x637;" horiz-adv-x="1020" arabic-form="isolated" 
d="M404 1144c45.333 0 68 -16 68 -48c14 -43.333 39.333 -99.333 76 -168l4 -16v-8c0 -26.667 -18.667 -48 -56 -64l-4 -32l24 -224l8 -32l-4 -24v-36l-4 -4l4 -4v-36l4 -16c-5.33301 -7.33301 -9.33301 -26 -12 -56l4 -4l-4 -20v-24l4 -16l-4 -16v-4l20 -12h4
c0 8.66699 16 18 48 28c67.333 64.667 162 112.667 284 144h40c77.333 -19.333 116 -46 116 -80l8 -52l-4 -4l4 -20v-16c-14 -36.667 -34 -68.667 -60 -96c-18.667 -14.667 -36 -34.667 -52 -60c-64 -46 -160 -83.333 -288 -112l-56 -8v-4l-20 4l-56 -4
c-125.333 15.333 -188 27.333 -188 36l-4 -4h-4c-49.333 18 -80 39.333 -92 64c-8 2.66699 -12 10.667 -12 24c0 18.667 48 28 144 28c58.667 24.667 88 62 88 112c8 12.667 12 34 12 64v8l-8 24l4 12l-8 36l4 12l-4 4v4l4 16l-40 196c0 12.667 -2.66699 22 -8 28v20
c-16 88.667 -25.333 162 -28 220c9.33301 160 24 240 44 240zM532 176c0 -11.333 5.33301 -20.668 16 -28.001c101.333 0 198.666 14.667 291.999 44c42.667 24.667 64 39.334 64 44.001v4c-14.667 32 -36 48 -64 48h-36l-12 8c-38.667 0 -88 -12 -148 -36
c-45.333 -22 -82.666 -50 -111.999 -84z" />
    <glyph glyph-name="u0638" unicode="&#x638;" horiz-adv-x="1020" arabic-form="isolated" 
d="M404 1144c45.333 0 68 -16 68 -48c14 -43.333 39.333 -99.333 76 -168l4 -16v-8c0 -26.667 -18.667 -48 -56 -64l-4 -32l24 -224l8 -32l-4 -24v-36l-4 -4l4 -4v-36l4 -16c-5.33301 -7.33301 -9.33301 -26 -12 -56l4 -4l-4 -20v-24l4 -16l-4 -16v-4l20 -12h4
c0 8.66699 16 18 48 28c67.333 64.667 162 112.667 284 144h40c77.333 -19.333 116 -46 116 -80l8 -52l-4 -4l4 -20v-16c-14 -36.667 -34 -68.667 -60 -96c-18.667 -14.667 -36 -34.667 -52 -60c-64 -46 -160 -83.333 -288 -112l-56 -8v-4l-20 4l-56 -4
c-125.333 15.333 -188 27.333 -188 36l-4 -4h-4c-49.333 18 -80 39.333 -92 64c-8 2.66699 -12 10.667 -12 24c0 18.667 48 28 144 28c58.667 24.667 88 62 88 112c8 12.667 12 34 12 64v8l-8 24l4 12l-8 36l4 12l-4 4v4l4 16l-40 196c0 12.667 -2.66699 22 -8 28v20
c-16 88.667 -25.333 162 -28 220c9.33301 160 24 240 44 240zM532 176c0 -11.333 5.33301 -20.668 16 -28.001c101.333 0 198.666 14.667 291.999 44c42.667 24.667 64 39.334 64 44.001v4c-14.667 32 -36 48 -64 48h-36l-12 8c-38.667 0 -88 -12 -148 -36
c-45.333 -22 -82.666 -50 -111.999 -84zM816 853.998c7.33301 0 19.333 -12.001 36 -36.001c18.667 -13.333 28 -24 28 -32l-8 -24l4 -28c-9.33301 -48 -32 -72 -68 -72l-4 4h-4l-48 -20c-12.667 5.33301 -26 25.333 -40 60c-8 0 -14.667 21.333 -20 64
c18.667 32 36 48 52 48c0 10.667 17.333 20 52 28c0 4.66699 6.66699 7.33398 20 8.00098z" />
    <glyph glyph-name="u0639" unicode="&#x639;" horiz-adv-x="1081" arabic-form="isolated" 
d="M556 711c44 0 92 -33.333 144 -100c16 -21.333 24 -37.333 24 -48v-44c0 -14.667 -10.667 -28 -32 -40h-12c-33.333 0 -58.666 12 -75.999 36l-80 12h-24c-70.667 -24 -117.334 -54.667 -140.001 -92l-16 -16c0 -36.667 33.333 -68.667 100 -96h28
c27.333 0 83.333 16 168 48l84 32l84 40h4c23.333 0 42 -16 56 -48v-20c0 -69.333 -41.333 -118.666 -124 -147.999c-56.667 -16.667 -128.667 -50 -216 -100c-16.667 0 -48.667 -24 -96 -72c-54.667 -39.333 -100 -87.333 -136 -144
c-29.333 -38.667 -54.666 -96 -75.999 -172l4 -4v-4l-4 -4l8 -64l-12 -60c6.66699 0 12 -14.667 16 -44c8 0 18.667 -16 32 -48c14 -24 42 -50.667 84 -80c41.333 -26.667 94.666 -40 159.999 -40l8 -8h96l60 -4l36 4l40 -4l48 8h40c37.333 0 85.333 6.66699 144 20l64 4h8
c26.667 -5.33301 40 -18.666 40 -39.999c-12.667 -58.667 -34 -88 -64 -88c0 -12.667 -42.667 -24.667 -128 -36c-27.333 -21.333 -68.666 -32 -123.999 -32h-32l-60 -12l-28 4h-84l-4 4l-32 -8l-4 4h-4l-4 -4h-4l-164 32c-4.66699 6 -26 15.333 -64 28
c-42.667 35.333 -76 72.666 -100 111.999c0 7.33301 -13.333 28.666 -40 63.999l-32 80l-12 52v112c10 61.333 24.667 121.333 44 180c0 18.667 14.667 61.334 44 128.001c5.33301 1.33301 30.666 38.666 75.999 111.999c5.33301 0 18.666 18.667 39.999 56
c8 0 14.667 4 20 12c-1.33301 13.333 -5.33301 20 -12 20c-32 12.667 -62.667 44.667 -92 96l-12 56v24l4 4l-4 4v4c12 44 37.333 100 76 168c0 7.33301 6.66699 15.333 20 24c38.667 56 65.334 84 80.001 84c42.667 34.667 84 52 124 52z" />
    <glyph glyph-name="u063A" unicode="&#x63a;" horiz-adv-x="1081" arabic-form="isolated" 
d="M556 711c44 0 92 -33.333 144 -100c16 -21.333 24 -37.333 24 -48v-44c0 -14.667 -10.667 -28 -32 -40h-12c-33.333 0 -58.666 12 -75.999 36l-80 12h-24c-70.667 -24 -117.334 -54.667 -140.001 -92l-16 -16c0 -36.667 33.333 -68.667 100 -96h28
c27.333 0 83.333 16 168 48l84 32l84 40h4c23.333 0 42 -16 56 -48v-20c0 -69.333 -41.333 -118.666 -124 -147.999c-56.667 -16.667 -128.667 -50 -216 -100c-16.667 0 -48.667 -24 -96 -72c-54.667 -39.333 -100 -87.333 -136 -144
c-29.333 -38.667 -54.666 -96 -75.999 -172l4 -4v-4l-4 -4l8 -64l-12 -60c6.66699 0 12 -14.667 16 -44c8 0 18.667 -16 32 -48c14 -24 42 -50.667 84 -80c41.333 -26.667 94.666 -40 159.999 -40l8 -8h96l60 -4l36 4l40 -4l48 8h40c37.333 0 85.333 6.66699 144 20l64 4h8
c26.667 -5.33301 40 -18.666 40 -39.999c-12.667 -58.667 -34 -88 -64 -88c0 -12.667 -42.667 -24.667 -128 -36c-27.333 -21.333 -68.666 -32 -123.999 -32h-32l-60 -12l-28 4h-84l-4 4l-32 -8l-4 4h-4l-4 -4h-4l-164 32c-4.66699 6 -26 15.333 -64 28
c-42.667 35.333 -76 72.666 -100 111.999c0 7.33301 -13.333 28.666 -40 63.999l-32 80l-12 52v112c10 61.333 24.667 121.333 44 180c0 18.667 14.667 61.334 44 128.001c5.33301 1.33301 30.666 38.666 75.999 111.999c5.33301 0 18.666 18.667 39.999 56
c8 0 14.667 4 20 12c-1.33301 13.333 -5.33301 20 -12 20c-32 12.667 -62.667 44.667 -92 96l-12 56v24l4 4l-4 4v4c12 44 37.333 100 76 168c0 7.33301 6.66699 15.333 20 24c38.667 56 65.334 84 80.001 84c42.667 34.667 84 52 124 52zM480 1088
c7.33301 0 19.333 -12.001 36 -36.001c18.667 -13.333 28 -24 28 -32l-8 -24l4 -28c-9.33301 -48 -32 -72 -68 -72l-4 4h-4l-48 -20c-12.667 5.33301 -26 25.333 -40 60c-8 0 -14.667 21.333 -20 64c18.667 32 36 48 52 48c0 10.667 17.333 20 52 28
c0 4.66699 6.66699 7.33398 20 8.00098z" />
    <glyph glyph-name="u0641" unicode="&#x641;" horiz-adv-x="1330" arabic-form="isolated" 
d="M1017 1046c64.667 0 104.666 -22.668 119.999 -68.001l20 -52v-8c0 -24 -14.667 -48 -44 -72c-29.333 -29.333 -52 -44 -68 -44h-4c-56 13.333 -84 29.333 -84 48c-26.667 34.667 -40 61.334 -40 80.001c10.667 53.333 29.334 80 56.001 80c14 24 28.667 36 44 36z
M1073 673.999l31.998 -0.000976562c85.333 -33.333 128 -64 128 -92l56 -104c24 -29.333 36 -70.666 36 -123.999l4 -12l-4 -28l4 -16l-4 -20l8 -76c-8.66699 -37.333 -24.667 -74.666 -48 -111.999c-22 -34.667 -54 -65.334 -96 -92.001
c-34 -28.667 -91.333 -56.667 -172 -84l-24 4c-11.333 0 -26 -6.66699 -44 -20h-16l-192 -36l-96 -4h-224l-32 16l-16 -4c-46 18.667 -74 33.334 -84 44.001c-33.333 22 -69.333 76.667 -108 164l-4 20h4c-8 8 -12 56 -12 144c8 0 12 16 12 48c16 45.333 30.667 68 44 68
l26 -8c13.333 -17.333 25.333 -52 36 -104h-4c20.667 -93.333 42 -140 64 -140c18.667 -21.333 69.334 -41.333 152.001 -60h36l44 -16l4 4l12 -4l124 4l12 -8h8l12 8h16l20 -4l120 16l4 -4h4c104.667 21.333 167.334 46.666 188.001 75.999l20 20
c6.66699 40.667 -10 63.334 -50 68.001c-64 0 -109.333 30.667 -136 92l-8 76c12 75.333 32 144.666 60 207.999c5.33301 30.667 25.333 58.667 60 84zM1074 455.998c-18 8.66699 -31.3311 4.66699 -39.998 -12c-6.66699 -6.66699 -3.33398 -20.667 9.99902 -42
c-2.66699 -6.66699 13.666 -21 48.999 -43l2 -1l48 -25c18 -2.66699 31.333 8.33301 40 33l1 3l-7 25c-4 21.333 -27.333 42 -70 62c-10 4.66699 -21 4.66699 -33 0z" />
    <glyph glyph-name="u0642" unicode="&#x642;" horiz-adv-x="1060" arabic-form="isolated" 
d="M922 1056c18.667 0 41.334 -22.666 68.001 -67.999l12 -36c0 -11.333 -12 -23.333 -36 -36c-20.667 -34.667 -43.334 -52 -68.001 -52c-20.667 34.667 -34 52 -40 52h-36c-43.333 -42 -70 -63.333 -80 -64c-21.333 21.333 -44 32 -68 32
c-29.333 19.333 -44 40.666 -44 63.999c16 6 24 15.333 24 28c28.667 19.333 48.667 42 60 68l20 4h4c8.66699 -7.33301 24.667 -14 48 -20l32 -40h16c8 2.66699 21.333 18.667 40 48c15.333 13.333 31.333 20 48 20zM842 660.001l4 0.00488281
c76 0 137.333 -73.333 184 -220c16 -26.667 24 -57.334 24 -92.001l-4 -24l8 -44l-8 -28l8 -92c-22.667 -30.667 -37.334 -57.334 -44.001 -80.001c-26 -48 -58 -85.333 -96 -112c-2 -10 -20.667 -26 -56 -48c0 -6 -16 -15.333 -48 -28c0 -15.333 -26.667 -27.333 -80 -36
c-20.667 -16 -44.667 -24 -72 -24c0 -8 -16 -13.333 -48 -16l-4 -4l-12 4l-64 -12l-28 4l-20 -4v4l-44 -24c-14 1.33301 -30 10.666 -48 27.999c-38.667 0 -72 13.333 -100 40l-60 36c0 26.667 -10.667 44 -32 52c0 21.333 -5.33301 37.333 -16 48l8 68l-12 24l8 132
c0 9.33301 6.66699 18.666 20 27.999l4 12l-4 20c15.333 42.667 42 64 80 64c26.667 -14 40 -25.333 40 -34l-32 -52l4 -24l-16 -24c13.333 -144 56 -216 128 -216l36 -4c2 -8 11.333 -14.667 28 -20l32 12h12l32 -8c46 8 74 16 84 24l16 -4c62 26.667 104.667 40 128 40
l96 64c40 31.333 60 62 60 92c29.333 25.333 44 44.666 44 57.999c0 12.667 -13.333 22 -40 28l-40 -8l-4 4v4c-43.333 -6.66699 -68.666 -14.667 -75.999 -24h-12c-16.667 14.667 -44.667 26.667 -84 36l-28 48l4 4v4c-4.66699 23.333 -11.334 39.333 -20.001 48
c8 11.333 16 38 24 80l8 8l-4 4v20c14.667 65.333 29.334 101.333 44.001 108c14 0 30 12 48 36zM794 496.006c0 -40 2.66699 -65.333 8 -76v-8c21.333 -16 53.333 -24 96 -24l24 16v32c-20 18.667 -36 40 -48 64h-8l-20 4l-24 -4h-4l-4 4z" />
    <glyph glyph-name="u0643" unicode="&#x643;" horiz-adv-x="1054" arabic-form="isolated" 
d="M788 1308c48 -12.667 71.999 -23.334 71.999 -32.001c0 -13.333 21.333 -34.666 64 -63.999c0 -7.33301 21.333 -24.666 64 -51.999l44 -60l4 -16c-16 -52.667 -29.333 -80.667 -40 -84h-24l-12 8h-8l-4 -48v-32c10 -22.667 16.667 -54.667 20 -96l-4 -16
c2 -16.667 10 -35.334 24 -56.001v-52l16 -20v-4c-8 -10 -12 -19.333 -12 -28v-28l20 -52l-8 -16l24 -196l-4 -40c0.666992 -13.333 3.33398 -20 8.00098 -20l-12 -56l4 -4v-4l-48 -152l-32 -48c-16 -8.66699 -36 -15.334 -60 -20.001v-4l-52 8l-40 -4v4l-28 -8l-28 4
l-40 -12l-32 8l-44 -4l-4 4l-56 -8c0 6 -14.667 11.333 -44 16l-104 -24h-24l-12 8h-44l-32 8h-8c0 -10.667 -4 -16 -12 -16h-20c-11.333 6 -20.666 18 -27.999 36l4 24l-36 40v8c42.667 56 82.667 84 120 84h40l56 -4l4 4h4l72 -8l80 8v-4l4 4l28 -4l24 4l40 -8l16 8l32 -8
l8 8l72 -8l12 4l36 -4c53.333 11.333 80 19.333 80 24l-4 44l4 16l-4 4v4l12 56v8l-12 24h4l-28 132l4 4c-2.66699 39.333 -10.667 83.333 -24 132c-20 146.667 -36 220 -48 220l8 16l-8 24v40l-16 56l4 4v4c-18.667 47.333 -29.334 83.333 -32.001 108
c-16 38.667 -28 85.334 -36 140.001c6.66699 42.667 18.667 64 36 64zM563.999 908c53.333 -2.66699 80 -17.334 80 -44.001l8 -28h-4c0 -18 -17.333 -38 -52 -60v-16c11.333 -9.33301 42 -18.666 92 -27.999l40 -100l-16 -20l4 -4v-4l-40 -72c0 -10 -12 -16.667 -36 -20
h-16c-2 -13.333 -6 -20 -12 -20l-24 4c0 -16.667 -10.667 -26 -32 -28l-4 4v4c-16.667 0 -35.334 -12 -56.001 -36h-8l-12 8l-16 -4l-16 4h-8l-12 -8h-44c-6 0 -11.333 10.667 -16 32l-20 -4c-40.667 6.66699 -68.667 18.667 -84 36c-24 15.333 -36 31.333 -36 48v16
c12 36 22.667 54.667 32 56h4c8.66699 0 31.334 -10.667 68.001 -32c41.333 -13.333 69.333 -20 84 -20l36 -4v-4l4 4h4l4 -4l4 4h24l12 -8h12l88 40l4 16h-8l-24 -16h-16l-28 32l-36 -4c-8 2 -14.667 4.66699 -20 8h-4l-24 -4c-21.333 10 -33.333 20.667 -36 32
c0 92 17.333 144 52 156c4.66699 0 16.667 17.333 36 52c13.333 0 28 10.667 44 32l4 4h20z" />
    <glyph glyph-name="u0644" unicode="&#x644;" horiz-adv-x="905" arabic-form="isolated" 
d="M750 1190c50.667 -5.33301 76.001 -21.3398 76.001 -48.0068c0 -11.333 12 -36.666 36 -75.999l20 -52c0 -33.333 -14.667 -66.666 -44 -99.999l-8 -28c0 -11.333 8 -35.333 24 -72v-16l-8 -56l4 -12h-4l20 -112c6.66699 0 14.667 -34.667 24 -104l4 -4l4 -204v-24
c0 -8.66699 4 -18 12 -28l-8 -40l12 -48l-72 -164c-43.333 -37.333 -74 -72 -92 -104c-44.667 -32.667 -86 -52.667 -124 -60l-20 4h-8c-71.333 -13.333 -134 -21.333 -188 -24c-32.667 6 -50 11.333 -52 16l-4 -4h-8c-46.667 0 -92 24 -136 72
c-7.33301 0 -15.333 17.333 -24 52c0 18.667 6.66699 33.334 20 44.001c-29.333 30.667 -44 69.334 -44 116.001c21.333 48.667 34.666 87.334 39.999 116.001l32 28c11.333 -3.33301 19.333 -10 24 -20v-20l-4 -20l4 -20l-8 -64v-12c0 -16.667 16 -48.667 48 -96
c0 -18.667 9.33301 -28 28 -28l20 -4c1.33301 5.33301 8 10.666 20 15.999l52 -20c2 8 12.667 12 32 12h8l20 -4l12 16c17.333 -1.33301 32 -8 44 -20h8c0 11.333 20 23.333 60 36l12 12h8l48 -24h4c4.66699 0 12.667 9.33301 24 28l20 -4c14.667 0 30.667 16 48 48
c21.333 0 32 16 32 48l-4 20c2.66699 36.667 8 67.334 16 92.001v12c-13.333 44.667 -20 83.334 -20 116.001c0.666992 10.667 3.33398 16 8.00098 16c-2.66699 29.333 -10.667 56 -24 80l-12 52l4 40c-10.667 12.667 -18.667 43.334 -24 92.001l4 4v4l-16 52l4 28
c-10.667 84 -21.334 136 -32.001 156l8 28l-16 72l-12 12v8c21.333 92.667 32 148.667 32 168c16 13.333 28 20 36 20z" />
    <glyph glyph-name="u0645" unicode="&#x645;" horiz-adv-x="621" arabic-form="isolated" 
d="M407 498c74 0 125.998 -26.667 155.998 -80c37.333 -41.333 56 -105.333 56 -192c-24 -72 -50.667 -108 -80 -108l-20 4l-20 -4c-29.333 18.667 -54.666 28 -75.999 28h-12l-40 -4c0 18.667 -41.333 28 -124 28c-8 0 -16 -10.667 -24 -32
c6.66699 -66.667 16 -100 28 -100l32 -116h-4c0 -8 10.667 -30.667 32 -68v-52l12 -56v-20l-4 -4c14 -17.333 26 -74.666 36 -171.999c10.667 -6.66699 16 -24 16 -52v-24c0 -18 -18.667 -34 -56 -48c-29.333 7.33301 -58.666 39.333 -87.999 96l4 24
c-16.667 82.667 -30 130.667 -40 144v16l4 24c-4.66699 3.33301 -8.66699 32.666 -12 87.999c-29.333 70.667 -44 116 -44 136l4 36l-4 24l4 36l-8 24v16l12 40l-4 24c0 11.333 12 34 36 68c0 26 10.667 42 32 48c32 40.667 48 64.667 48 72l-4 4v4
c0 21.333 14.667 57.333 44 108l60 36zM389.998 357c-16 4 -26.667 -1.99902 -32 -17.999c-4.66699 -6.66699 0.333008 -18 15 -34c-0.666992 -6.66699 16 -16.667 50 -30l2 -1c10 -2.66699 25 -7.33398 45 -14.001c16 1.33301 25.667 13.333 29 36l1 3l-10 21
c-7.33301 18 -31 32 -71 42c-9.33301 2.66699 -19 1 -29 -5z" />
    <glyph glyph-name="u0646" unicode="&#x646;" horiz-adv-x="1047" arabic-form="isolated" 
d="M531 885h4c35.333 0 68.666 -14.667 99.999 -44c16 -27.333 24 -52.666 24 -75.999c-8 -34.667 -38.667 -78.667 -92 -132l-40 -8h-16c-9.33301 1.33301 -26.666 18.666 -51.999 51.999l-8 36c-9.33301 0 -17.333 8 -24 24c23.333 90.667 50 136 80 136
c2.66699 8 10.667 12 24 12zM867 717l24 0.00195312c45.333 -8 68 -22.667 68 -44c24 -10.667 36 -29.334 36 -56.001l-4 -36c8.66699 -42.667 19.334 -69.334 32.001 -80.001v-4l-8 -32l20 -72v-4l-4 -40l8 -36c0 -93.333 -16 -160 -48 -200c0 -22 -14.667 -44.667 -44 -68
c-2.66699 -24.667 -30.667 -68.667 -84 -132l-56 -36l-84 -48l-24 -16c-16.667 0 -35.334 -9.33301 -56.001 -28h-44l-16 -4l-16 4h-36l-4 4l-40 -12l-140 40l-4 -4h-4c-10 0 -42 16 -96 48c-6 0 -19.333 16 -40 48c-26.667 9.33301 -40 25.333 -40 48
c-5.33301 28 -13.333 52 -24 72l8 76l-12 68l24 120c0 30.667 14 55.334 42 74.001h12c26.667 0 42.667 -20 48 -60c-10.667 -34 -17.334 -88.667 -20.001 -164c10 -48 35.333 -90.667 76 -128l68 -44l16 -4l32 4l16 -16l76 12l4 -4l20 4h4l32 -8h4
c3.33301 21.333 42 34.666 116 39.999l96 60l40 36l24 -4c30.667 43.333 53.334 88.666 68.001 135.999l-4 28l4 12c0 46 -12.667 94 -38 144c-4.66699 1.33301 -18 25.333 -40 72c-13.333 10.667 -24 33.334 -32 68.001l24 130c0 17.333 6.66699 29.333 20 36z" />
    <glyph glyph-name="u0647" unicode="&#x647;" horiz-adv-x="604" arabic-form="isolated" 
d="M372 451l4 -0.00292969l12 -8l4 4h4c98.667 -17.333 148 -34.666 148 -51.999c37.333 -36 56 -84 56 -144c-14 -85.333 -31.333 -128 -52 -128c-36 -64 -118.667 -96 -248 -96l-96 56c-18.667 20 -28 48 -28 84v8c8 20.667 12 43.334 12 68.001l48 92
c8 0 17.333 9.33301 28 28c7.33301 2.66699 22 21.334 44 56.001c34.667 21.333 56 32 64 32zM308 298.997c-21.333 -23.333 -32 -39.334 -32 -48.001c0 -7.33301 18.667 -12.666 56 -15.999l24 -24h12c26 24 46 36 60 36l12 16c0 13.333 -14.667 24 -44 32l-4 -4h-4z" />
    <glyph glyph-name="u0648" unicode="&#x648;" horiz-adv-x="790" arabic-form="isolated" 
d="M573 516c14 0 36.665 -8.00195 67.998 -24.002c30.667 0 65.334 -32 104.001 -96c29.333 -55.333 44 -126 44 -212c-10.667 -83.333 -20 -135.333 -28 -156l4 -16c0 -17.333 -17.333 -53.333 -52 -108c-22 -48.667 -84.667 -118 -188 -208
c-39.333 -13.333 -70 -26.666 -92 -39.999l-132 8c-42.667 11.333 -64 27.333 -64 48h4l-12 36c6 29.333 18 44 36 44l4 -4h4l88 40c50.667 14.667 93.334 36 128.001 64c18 0 30 5.33301 36 16c10 0 20.667 9.33301 32 28c34.667 4.66699 52 20.667 52 48l56 64
c16 35.333 24 59.333 24 72l-24 24l-20 -4c-70 0 -108.667 -5.33301 -116 -16h-4c-12.667 13.333 -38 25.333 -76 36c-18.667 22 -28 42 -28 60v88c13.333 30 20 64.667 20 104c18.667 16 36 40 52 72c11.333 10.667 38 21.334 80 32.001zM528.998 324.998
c-16.667 -3.33301 -24.001 -13 -22.001 -29c-1.33301 -8.66699 8.33398 -17 29.001 -25c2 -6 21 -8 57 -6l3 1c10 2 25.333 4 46 6c14 8 17.667 23 11 45l-1 3l-18 15c-14 12.667 -41.333 15 -82 7c-9.33301 -2 -17 -7.66699 -23 -17z" />
    <glyph glyph-name="u0649" unicode="&#x649;" horiz-adv-x="1306" arabic-form="isolated" 
d="M1106 667l16 0.000976562c28 0 50.667 -10.667 68 -32c20 0 44 -22.667 72 -68h4l-4 -48v-28c0 -21.333 -10.667 -32 -32 -32h-4l-80 32l-16 -4l-44 8l-64 -28l-12 4c-21.333 -31.333 -54.666 -67.333 -99.999 -108c-29.333 -53.333 -44 -88 -44 -104
c22 -16 44.667 -25.333 68 -28c13.333 -8.66699 20 -16.667 20 -24h12c14 0 43.333 -9.33301 88 -28l48 -12c6 -0.666992 18 -10 36 -28h12l20 4l28 -80v-8l-39 -110l-69 -90l-60 -48h-8l-4 4h-4c0 -12 -33.333 -22.667 -100 -32c0 -9.33301 -34.667 -20 -104 -32l-4 4
c-69.333 -18.667 -125.333 -28 -168 -28l-24 8h-8l-24 -4c-53.333 8.66699 -98.666 24.667 -135.999 48c-13.333 18.667 -25.333 28 -36 28l-16 -4c-16 2 -32 19.333 -48 52c-10.667 0 -24 13.333 -40 40c-14 6 -24.667 42 -32 108l-4 4c0 77.333 21.333 160 64 248
c5.33301 0 8 18.667 8 56c17.333 16 37.333 44 60 84c10.667 0 24 10.667 40 32h28c18.667 -12.667 28 -30 28 -52c-33.333 -90 -56 -135.333 -68 -136c-13.333 -45.333 -25.333 -113.333 -36 -204c26 -60.667 62 -99.334 108 -116.001l44 -12
c33.333 -16.667 56 -26.667 68 -30h8l36 -6h16l80 20l16 4l16 -4c9.33301 8 21.333 13.333 36 16c53.333 4.66699 90.666 14 111.999 28l68 28c7.33301 17.333 22 36 44 56v4c0 12 -24 20 -72 24c-56 21.333 -101.333 33.333 -136 36c-35.333 15.333 -59.333 38 -72 68
l-24 40v8c16 113.333 42.667 196 80 248c11.333 5.33301 31.333 25.333 60 60l36 40c81.333 72 130.666 108 147.999 108z" />
    <glyph glyph-name="u064A" unicode="&#x64a;" horiz-adv-x="1306" arabic-form="isolated" 
d="M1106 667l16 0.000976562c28 0 50.667 -10.667 68 -32c20 0 44 -22.667 72 -68h4l-4 -48v-28c0 -21.333 -10.667 -32 -32 -32h-4l-80 32l-16 -4l-44 8l-64 -28l-12 4c-21.333 -31.333 -54.666 -67.333 -99.999 -108c-29.333 -53.333 -44 -88 -44 -104
c22 -16 44.667 -25.333 68 -28c13.333 -8.66699 20 -16.667 20 -24h12c14 0 43.333 -9.33301 88 -28l48 -12c6 -0.666992 18 -10 36 -28h12l20 4l28 -80v-8l-39 -110l-69 -90l-60 -48h-8l-4 4h-4c0 -12 -33.333 -22.667 -100 -32c0 -9.33301 -34.667 -20 -104 -32l-4 4
c-69.333 -18.667 -125.333 -28 -168 -28l-24 8h-8l-24 -4c-53.333 8.66699 -98.666 24.667 -135.999 48c-13.333 18.667 -25.333 28 -36 28l-16 -4c-16 2 -32 19.333 -48 52c-10.667 0 -24 13.333 -40 40c-14 6 -24.667 42 -32 108l-4 4c0 77.333 21.333 160 64 248
c5.33301 0 8 18.667 8 56c17.333 16 37.333 44 60 84c10.667 0 24 10.667 40 32h28c18.667 -12.667 28 -30 28 -52c-33.333 -90 -56 -135.333 -68 -136c-13.333 -45.333 -25.333 -113.333 -36 -204c26 -60.667 62 -99.334 108 -116.001l44 -12
c33.333 -16.667 56 -26.667 68 -30h8l36 -6h16l80 20l16 4l16 -4c9.33301 8 21.333 13.333 36 16c53.333 4.66699 90.666 14 111.999 28l68 28c7.33301 17.333 22 36 44 56v4c0 12 -24 20 -72 24c-56 21.333 -101.333 33.333 -136 36c-35.333 15.333 -59.333 38 -72 68
l-24 40v8c16 113.333 42.667 196 80 248c11.333 5.33301 31.333 25.333 60 60l36 40c81.333 72 130.666 108 147.999 108z" />
    <glyph glyph-name="u067E" unicode="&#x67e;" horiz-adv-x="1297" arabic-form="isolated" 
d="M734 -278c7.33301 0 19.333 -12.001 36 -36.001c18.667 -13.333 28 -24 28 -32l-8 -24l4 -28c-9.33301 -48 -32 -72 -68 -72l-4 4h-4l-48 -20c-12.667 5.33301 -26 25.333 -40 60c-8 0 -14.667 21.333 -20 64c18.667 32 36 48 52 48c0 10.667 17.333 20 52 28
c0 4.66699 6.66699 7.33398 20 8.00098zM824 -468.001c7.33301 0 19.333 -12.001 36 -36.001c18.667 -13.333 28 -24 28 -32l-8 -24l4 -28c-9.33301 -48 -32 -72 -68 -72l-4 4h-4l-48 -20c-12.667 5.33301 -26 25.333 -40 60c-8 0 -14.667 21.333 -20 64
c18.667 32 36 48 52 48c0 10.667 17.333 20 52 28c0 4.66699 6.66699 7.33398 20 8.00098zM934 -278.002c7.33301 0 19.333 -12.001 36 -36.001c18.667 -13.333 28 -24 28 -32l-8 -24l4 -28c-9.33301 -48 -32 -72 -68 -72l-4 4h-4l-48 -20
c-12.667 5.33301 -26 25.333 -40 60c-8 0 -14.667 21.333 -20 64c18.667 32 36 48 52 48c0 10.667 17.333 20 52 28c0 4.66699 6.66699 7.33398 20 8.00098zM1194 573.997c29.333 0 58.667 -31.999 88 -95.999l8 -76l-4 -20l12 -24v-16l-4 -16l4 -4v-4l-4 -4v-4l4 -24h-4
l4 -4v-12c-17.333 -104 -38.666 -156 -63.999 -156c-58 -58.667 -108.667 -88 -152 -88c-10.667 -8 -52 -22.667 -124 -44v4l-4 -4h-44l-52 -24h-48l-4 4c-13.333 -5.33301 -44 -8 -92 -8h-4c-19.333 0 -30 4 -32 12l-40 -8l-40 4h-12c-9.33301 -8 -25.333 -12 -48 -12h-24
l-72 24l-16 4l-4 -4h-4c-82.667 23.333 -124 48.666 -124 75.999c-29.333 15.333 -44 64.666 -44 147.999h4l-4 4l4 40v76c10 56 20.667 84 32 84c22.667 48 44 72 64 72l38 -30l-4 -20v-4l8 -32c0 -13.333 -6.66699 -25.333 -20 -36l4 -4v-4l-36 -84v-36
c52 -53.333 92 -80 120 -80l68 -28c6 5.33301 32.667 9.33301 80 12l4 -4h4l168 12l48 -4c68.667 18.667 112.667 28 132 28c0 4.66699 25.333 11.334 76 20.001c25.333 5.33301 62.666 20 111.999 44c21.333 0 32 10.667 32 32c0 32 -25.667 77 -77 135l-4 44l33 77
c0 16.667 16.667 36 50 58l4 4h4z" />
    <glyph glyph-name="u0686" unicode="&#x686;" horiz-adv-x="1006" arabic-form="isolated" 
d="M363 473l87.998 -0.000976562c12.667 -6.66699 54 -13.334 124 -20.001h32l12 -8l264 -4h16l44 8h4c45.333 -10.667 68 -26.667 68 -48v-16c-19.333 -82.667 -48.666 -124 -87.999 -124h-36l-12 4l-20 -4h-8l-156 -4
c-125.333 -56.667 -194.666 -95.334 -207.999 -116.001c-7.33301 0 -31.333 -22.667 -72 -68c-36 -32 -70.667 -85.333 -104 -160l-24 -68l-16 -116c0 -89.333 25.333 -150.666 76 -183.999c36 -38 78.667 -63.333 128 -76c100 -32 165.333 -48 196 -48l44 4v-4l104 20
l20 -4h20c4 4.66699 37.333 11.334 100 20.001c27.333 13.333 52.666 20 75.999 20h8l12 -12v-20c0 -43.333 -20 -70 -60 -80c-17.333 -15.333 -93.333 -46 -228 -92l-96 -12l-12 4l-20 -4l-16 4c-10.667 -5.33301 -25.334 -8 -44.001 -8h-40
c-62.667 7.33301 -114.667 24.666 -156 51.999c-27.333 12.667 -51.333 27.334 -72 44.001c-52.667 30 -94 112.667 -124 248c0 48 -2.66699 81.333 -8 100c11.333 72.667 24.666 135.334 39.999 188.001l40 108c24.667 54 51.334 100.667 80.001 140c16 28.667 36 50 60 64
c0 6.66699 28 33.334 84 80.001v12h-40l-32 8h-4c-74.667 -10 -112 -20.667 -112 -32c-9.33301 -6 -26.666 -36.667 -51.999 -92l-20 -16h-8c-21.333 7.33301 -34.666 16.666 -39.999 27.999v64c8 15.333 18.667 51.333 32 108c48 74.667 100 112 156 112zM619.998 -35.001
c7.33301 0 19.333 -12.001 36 -36.001c18.667 -13.333 28 -24 28 -32l-8 -24l4 -28c-9.33301 -48 -32 -72 -68 -72l-4 4h-4l-48 -20c-12.667 5.33301 -26 25.333 -40 60c-8 0 -14.667 21.333 -20 64c18.667 32 36 48 52 48c0 10.667 17.333 20 52 28
c0 4.66699 6.66699 7.33398 20 8.00098zM709.998 -225.002c7.33301 0 19.333 -12.001 36 -36.001c18.667 -13.333 28 -24 28 -32l-8 -24l4 -28c-9.33301 -48 -32 -72 -68 -72l-4 4h-4l-48 -20c-12.667 5.33301 -26 25.333 -40 60c-8 0 -14.667 21.333 -20 64
c18.667 32 36 48 52 48c0 10.667 17.333 20 52 28c0 4.66699 6.66699 7.33398 20 8.00098zM819.998 -35.0029c7.33301 0 19.333 -12.001 36 -36.001c18.667 -13.333 28 -24 28 -32l-8 -24l4 -28c-9.33301 -48 -32 -72 -68 -72l-4 4h-4l-48 -20
c-12.667 5.33301 -26 25.333 -40 60c-8 0 -14.667 21.333 -20 64c18.667 32 36 48 52 48c0 10.667 17.333 20 52 28c0 4.66699 6.66699 7.33398 20 8.00098z" />
    <glyph glyph-name="u0698" unicode="&#x698;" horiz-adv-x="702" arabic-form="isolated" 
d="M531 440c40.667 0 86 -34.665 136 -103.998c10 0 24.667 -48 44 -144v-20c-21.333 -125.333 -41.333 -188 -60 -188c0 -9.33301 -20 -44 -60 -104l-136 -156c-6.66699 0 -41.334 -22.667 -104.001 -68l-68 -20h-16c-42.667 0 -90.667 30.667 -144 92
c-10 11.333 -19.333 32.666 -28 63.999c0 21.333 56 32 168 32c52 0 132 37.333 240 112c47.333 46 78 98 92 156l8 44c-13.333 37.333 -30.666 58.666 -51.999 63.999c0 4.66699 -24 24.667 -72 60l-20 56c0 42 20 83.333 60 124h12zM363 510.002
c-34.667 8 -52 17.332 -52 27.999c-16 0 -33.333 16 -52 48c5.33301 42.667 12 64 20 64c14 34.667 27.333 54.667 40 60l48 -20h4l4 4c36 0 58.667 -24 68 -72l-4 -28l8 -24c0 -8 -9.33301 -18.667 -28 -32c-16.667 -24 -28.667 -36 -36 -36
c-13.333 0.666992 -20 3.33398 -20 8.00098zM453 700.001c-34.667 8 -52 17.332 -52 27.999c-16 0 -33.333 16 -52 48c5.33301 42.667 12 64 20 64c14 34.667 27.333 54.667 40 60l48 -20h4l4 4c36 0 58.667 -24 68 -72l-4 -28l8 -24c0 -8 -9.33301 -18.667 -28 -32
c-16.667 -24 -28.667 -36 -36 -36c-13.333 0.666992 -20 3.33398 -20 8.00098zM563 510c-34.667 8 -52 17.332 -52 27.999c-16 0 -33.333 16 -52 48c5.33301 42.667 12 64 20 64c14 34.667 27.333 54.667 40 60l48 -20h4l4 4c36 0 58.667 -24 68 -72l-4 -28l8 -24
c0 -8 -9.33301 -18.667 -28 -32c-16.667 -24 -28.667 -36 -36 -36c-13.333 0.666992 -20 3.33398 -20 8.00098z" />
    <glyph glyph-name="u06AF" unicode="&#x6af;" horiz-adv-x="1756" arabic-form="isolated" 
d="M1700 1432l8 0.000976562c34.667 -10.667 52 -29.334 52 -56.001c0 -48 -40 -80 -120 -96c-352.667 -136 -542 -206.667 -568 -212c0 6.66699 -10.667 24 -32 52v8c14.667 40 24 60 28 60c56 14.667 88 28 96 40c23.333 2 60.666 18 111.999 48
c34.667 2 73.334 16.667 116.001 44l4 4v4l40 -4l136 60c0 5.33301 10.667 8 32 8c10.667 14.667 42.667 28 96 40zM1736 1292c16 -26 23.998 -47.333 23.998 -64v-12c-8 -58.667 -49.333 -88 -124 -88c-20 -18.667 -42.667 -28 -68 -28c0 -8.66699 -40 -22 -120 -40
c0 -6 -29.333 -14 -88 -24c-60.667 -20 -95.334 -38.667 -104.001 -56c-23.333 0 -54 -21.333 -92 -64l-12 -36c0 -25.333 21.333 -52 64 -80c9.33301 -14 36 -35.333 80 -64c0 -4 16 -16 48 -36c0 -5.33301 12 -17.333 36 -36c82.667 -92 124 -160 124 -204
c9.33301 -14 22.666 -47.333 39.999 -100l4 -4c0 -77.333 -17.333 -146.666 -52 -207.999c-51.333 -56 -92.666 -84 -123.999 -84c-80 -40 -148 -60 -204 -60l-32 4l-12 -8h-12c-61.333 5.33301 -92 18.666 -92 39.999c-13.333 20 -20 41.333 -20 64v4
c11.333 37.333 19.333 56 24 56l4 -4h4l20 12h52l4 -4l4 4h92c18.667 0 33.334 2.66699 44.001 8l12 -4v4l16 12l16 -8l56 20c28.667 40 51.334 60 68.001 60c10.667 11.333 16 22 16 32v40c0 8 -9.33301 26.667 -28 56l-20 40c0 11.333 -20 34 -60 68
c-20 30.667 -40 54.667 -60 72c-4 11.333 -25.333 27.333 -64 48c-44 28 -97.333 72 -160 132c-7.33301 24 -19.333 42.667 -36 56v4l4 52l-4 48c13.333 58.667 25.333 88 36 88s21.334 14.667 32.001 44c288.667 112 510 194.667 664 248zM683.998 814.001
l4.00098 0.000976562l16 -8l28 4l8 -8c-3.33301 -29.333 -11.333 -44 -24 -44v-4c0 -34 -12 -63.333 -36 -88v-16c8 -1.33301 12 -10.666 12 -27.999h24c34.667 -22.667 52 -46.667 52 -72l8 -8c-16 -20.667 -26.667 -55.334 -32 -104.001c-37.333 -12 -56 -28 -56 -48
l-12 -8h-4l-4 4h-4c0 -12 -14.667 -22.667 -44 -32h-12l-4 4c-17.333 -10.667 -32 -16 -44 -16l-12 12l-24 -16h-20l-88 56v20l12 12h40c43.333 10 72.666 24.667 87.999 44h8l12 -4v4l12 24v12c-24 3.33301 -36 11.333 -36 24c-26.667 33.333 -40 66.666 -40 99.999v8
c17.333 30.667 44 68 80 112c0 11.333 14.667 30 44 56l28 -4h4zM367.999 603.002l3.99707 -0.000976562c6 -0.666992 12.667 -12.667 20 -36c-10.667 -23.333 -16 -40.666 -16 -51.999c-18.667 -4.66699 -28 -18 -28 -40c-8.66699 0 -16.667 -17.333 -24 -52l16 -32v-12
c-12 -16 -22.667 -24 -32 -24c0 -59.333 20 -103.333 60 -132c6 -0.666992 15.333 -8.66699 28 -24c30.667 -12 57.334 -26.667 80.001 -44c27.333 3.33301 43.333 7.33301 48 12h4l12 -8h36l24 4l20 -4l20 16l16 -16h12l20 4l104 -12l8 12l20 -4h16l20 4l8 -8l88 8h4
c12.667 0 23.334 -32 32.001 -96c0 -48 -6.66699 -72 -20 -72c-18 0 -32.667 -5.33301 -44 -16h-8c-6.66699 0 -10.667 5.33301 -12 16h-32l-16 -16l-32 12h-36l-32 -8h-44l-12 8h-20l-32 -8l-24 4l-32 -8c0 7.33301 -34.667 19.333 -104 36h-28l-12 8l-36 -8l-44 36l-8 -8
h-4c-10 11.333 -32.667 23.333 -68 36l-52 92c-19.333 0 -32.666 17.333 -39.999 52l4 40l-4 4v4l8 16l-8 32c0 12.667 14.667 54 44 124c0 29.333 8 49.333 24 60c20 42.667 40 64 60 64c8 12.667 22.667 24.667 44 36z" />
    <glyph glyph-name="uFB57" unicode="&#x67e;" horiz-adv-x="1317" arabic-form="final" 
d="M279 362c18.667 -16.667 27.998 -35.334 27.998 -56.001l-20 -56l4 -4v-4l-4 -36c4.66699 0 8.66699 -9.33301 12 -28c27.333 -37.333 51.333 -56 72 -56c10.667 -13.333 29.334 -20 56.001 -20c18.667 -12.667 53.334 -22 104.001 -28v-4l4 4h4
c21.333 0 38.666 -5.33301 51.999 -16l4 4h12l12 -4l20 4h32l4 -4h4l8 8h36l36 4l12 -4l84 20l4 -4h4c18 0 60.667 13.333 128 40c58 14.667 103.333 45.334 136 92.001c18.667 21.333 36 32 52 32l32 4c18.667 -17.333 28 -42.666 28 -75.999
c12 -14.667 22.667 -22.667 32 -24c24 -29.333 36 -60 36 -92h-4l4 -4v-12c0 -10.667 -9.33301 -25.334 -28 -44.001c-43.333 0 -87.333 14.667 -132 44h-28l-88 -56l-84 -40l-172 -52l-28 -8h-8v4l-40 -4h-120c-140 0 -252 48 -336 144c-30 44 -47.333 93.333 -52 148l8 16
l-4 20v4c7.33301 53.333 14 80 20 80l-4 20c12.667 29.333 35.334 44 68.001 44zM593.998 -278c7.33301 0 19.333 -12.001 36 -36.001c18.667 -13.333 28 -24 28 -32l-8 -24l4 -28c-9.33301 -48 -32 -72 -68 -72l-4 4h-4l-48 -20c-12.667 5.33301 -26 25.333 -40 60
c-8 0 -14.667 21.333 -20 64c18.667 32 36 48 52 48c0 10.667 17.333 20 52 28c0 4.66699 6.66699 7.33398 20 8.00098zM683.998 -468.001c7.33301 0 19.333 -12.001 36 -36.001c18.667 -13.333 28 -24 28 -32l-8 -24l4 -28c-9.33301 -48 -32 -72 -68 -72l-4 4h-4l-48 -20
c-12.667 5.33301 -26 25.333 -40 60c-8 0 -14.667 21.333 -20 64c18.667 32 36 48 52 48c0 10.667 17.333 20 52 28c0 4.66699 6.66699 7.33398 20 8.00098zM793.998 -278.002c7.33301 0 19.333 -12.001 36 -36.001c18.667 -13.333 28 -24 28 -32l-8 -24l4 -28
c-9.33301 -48 -32 -72 -68 -72l-4 4h-4l-48 -20c-12.667 5.33301 -26 25.333 -40 60c-8 0 -14.667 21.333 -20 64c18.667 32 36 48 52 48c0 10.667 17.333 20 52 28c0 4.66699 6.66699 7.33398 20 8.00098z" />
    <glyph glyph-name="uFB58" unicode="&#x67e;" horiz-adv-x="419" arabic-form="initial" 
d="M120 460l8 -0.00195312c33.333 -17.333 57.333 -46.666 72 -87.999c29.333 -66 44 -116.667 44 -152c-8 -60.667 -20 -106 -36 -136c0 -28.667 -33.333 -52.667 -100 -72c0 -8 -22.667 -12 -68 -12c-11.333 10 -18 27.333 -20 52l4 4l-4 20v40
c25.333 32.667 54.666 52.667 87.999 60l4 36c0 14 -18.667 38 -56 72c-8 12.667 -13.333 35.334 -16 68.001c16.667 72 43.334 108 80.001 108zM146 -268.002c7.33301 0 19.333 -12.001 36 -36.001c18.667 -13.333 28 -24 28 -32l-8 -24l4 -28
c-9.33301 -48 -32 -72 -68 -72l-4 4h-4l-48 -20c-12.667 5.33301 -26 25.333 -40 60c-8 0 -14.667 21.333 -20 64c18.667 32 36 48 52 48c0 10.667 17.333 20 52 28c0 4.66699 6.66699 7.33398 20 8.00098zM236 -458.003c7.33301 0 19.333 -12.001 36 -36.001
c18.667 -13.333 28 -24 28 -32l-8 -24l4 -28c-9.33301 -48 -32 -72 -68 -72l-4 4h-4l-48 -20c-12.667 5.33301 -26 25.333 -40 60c-8 0 -14.667 21.333 -20 64c18.667 32 36 48 52 48c0 10.667 17.333 20 52 28c0 4.66699 6.66699 7.33398 20 8.00098zM346 -268.004
c7.33301 0 19.333 -12.001 36 -36.001c18.667 -13.333 28 -24 28 -32l-8 -24l4 -28c-9.33301 -48 -32 -72 -68 -72l-4 4h-4l-48 -20c-12.667 5.33301 -26 25.333 -40 60c-8 0 -14.667 21.333 -20 64c18.667 32 36 48 52 48c0 10.667 17.333 20 52 28
c0 4.66699 6.66699 7.33398 20 8.00098z" />
    <glyph glyph-name="uFB59" unicode="&#x67e;" horiz-adv-x="500" arabic-form="medial" 
d="M228 329l4 -0.000976562c6 -4.66699 18.333 -6.33398 37 -5.00098c13.333 -11.333 23 -34.666 29 -69.999c14.667 -28.667 29.334 -49 44.001 -61l20 5h4c54.667 -19.333 91.667 -35.333 111 -48l20 -47c4 -61.333 -19.333 -93.666 -70 -96.999l-16 -5
c-58.667 6 -119.334 32.667 -182.001 80l-27 -2c-18 -8.66699 -36 -22 -54 -40l-31 -14l-44 1l-23 -14c-19.333 2.66699 -30.333 24.667 -33 66c-5.33301 -0.666992 -10 7 -14 23c-0.666992 14 10.333 32 33 54c-0.666992 10.667 7 16.667 23 18l12 -11
c28 2 46.333 11.333 55 28c29.333 21.333 49.333 56 60 104c7.33301 13.333 21.333 25 42 35zM194 -274.001c7.33301 0 19.333 -12.001 36 -36.001c18.667 -13.333 28 -24 28 -32l-8 -24l4 -28c-9.33301 -48 -32 -72 -68 -72l-4 4h-4l-48 -20
c-12.667 5.33301 -26 25.333 -40 60c-8 0 -14.667 21.333 -20 64c18.667 32 36 48 52 48c0 10.667 17.333 20 52 28c0 4.66699 6.66699 7.33398 20 8.00098zM284 -464.002c7.33301 0 19.333 -12.001 36 -36.001c18.667 -13.333 28 -24 28 -32l-8 -24l4 -28
c-9.33301 -48 -32 -72 -68 -72l-4 4h-4l-48 -20c-12.667 5.33301 -26 25.333 -40 60c-8 0 -14.667 21.333 -20 64c18.667 32 36 48 52 48c0 10.667 17.333 20 52 28c0 4.66699 6.66699 7.33398 20 8.00098zM394 -274.003c7.33301 0 19.333 -12.001 36 -36.001
c18.667 -13.333 28 -24 28 -32l-8 -24l4 -28c-9.33301 -48 -32 -72 -68 -72l-4 4h-4l-48 -20c-12.667 5.33301 -26 25.333 -40 60c-8 0 -14.667 21.333 -20 64c18.667 32 36 48 52 48c0 10.667 17.333 20 52 28c0 4.66699 6.66699 7.33398 20 8.00098z" />
    <glyph glyph-name="uFB7B" unicode="&#x686;" horiz-adv-x="1060" arabic-form="final" 
d="M363 419l88.001 -0.00195312c12.667 -6.66699 54 -13.334 124 -20.001h32l12 -8l240 -4l108 4c2 -8 12.667 -12 32 -12c10.667 -11.333 16 -22 16 -32v-16c-19.333 -82.667 -48.666 -124 -87.999 -124l-16 -4v4c-10.667 -5.33301 -25.334 -8 -44.001 -8h-4l-4 -20l12 -8
l56 4c82.667 -4 124 -21.333 124 -52v-32l-4 -16l4 -20c0 -34.667 -8 -56 -24 -64h-76l-16 8l-36 -8l-56 8l-24 -4h-8c-14 10 -30 16.667 -48 20c-21.333 34 -33.333 66 -36 96l12 64v20l-16 8h-20c-120.667 -47.333 -199.334 -91.333 -236.001 -132
c-82.667 -76 -132 -142.667 -148 -200c-21.333 -37.333 -37.333 -97.333 -48 -180v-16c0 -89.333 25.333 -150.666 76 -183.999c36 -38 78.667 -63.333 128 -76c100 -32 165.333 -48 196 -48l44 4v-4l104 20l20 -4h20c4 4.66699 37.333 11.334 100 20.001
c27.333 13.333 52.666 20 75.999 20h8l12 -12v-20c0 -43.333 -20 -70 -60 -80c-17.333 -15.333 -93.333 -46 -228 -92l-96 -12l-12 4l-20 -4l-16 4c-10.667 -5.33301 -25.334 -8 -44.001 -8h-40c-62.667 7.33301 -114.667 24.666 -156 51.999
c-27.333 12.667 -51.333 27.334 -72 44.001c-52.667 30 -94 112.667 -124 248c0 48 -2.66699 81.333 -8 100c11.333 72.667 24.666 135.334 39.999 188.001l40 108c24.667 54 51.334 100.667 80.001 140c16 28.667 36 50 60 64c0 6.66699 28 33.334 84 80.001v12h-40l-32 8
h-4c-74.667 -10 -112 -20.667 -112 -32c-9.33301 -6 -26.666 -36.667 -51.999 -92l-20 -16h-8c-21.333 7.33301 -34.666 16.666 -39.999 27.999v64c8 15.333 18.667 51.333 32 108c48 74.667 100 112 156 112zM620.001 -85.002c7.33301 0 19.333 -12.001 36 -36.001
c18.667 -13.333 28 -24 28 -32l-8 -24l4 -28c-9.33301 -48 -32 -72 -68 -72l-4 4h-4l-48 -20c-12.667 5.33301 -26 25.333 -40 60c-8 0 -14.667 21.333 -20 64c18.667 32 36 48 52 48c0 10.667 17.333 20 52 28c0 4.66699 6.66699 7.33398 20 8.00098zM710.001 -275.003
c7.33301 0 19.333 -12.001 36 -36.001c18.667 -13.333 28 -24 28 -32l-8 -24l4 -28c-9.33301 -48 -32 -72 -68 -72l-4 4h-4l-48 -20c-12.667 5.33301 -26 25.333 -40 60c-8 0 -14.667 21.333 -20 64c18.667 32 36 48 52 48c0 10.667 17.333 20 52 28
c0 4.66699 6.66699 7.33398 20 8.00098zM820.001 -85.0039c7.33301 0 19.333 -12.001 36 -36.001c18.667 -13.333 28 -24 28 -32l-8 -24l4 -28c-9.33301 -48 -32 -72 -68 -72l-4 4h-4l-48 -20c-12.667 5.33301 -26 25.333 -40 60c-8 0 -14.667 21.333 -20 64
c18.667 32 36 48 52 48c0 10.667 17.333 20 52 28c0 4.66699 6.66699 7.33398 20 8.00098z" />
    <glyph glyph-name="uFB7C" unicode="&#x686;" horiz-adv-x="864" arabic-form="initial" 
d="M160 516l67.998 0.00292969l100 -28c10 -13.333 28.667 -20 56 -20c7.33301 -8 34 -17.333 80 -28c30.667 -18.667 57.334 -28 80.001 -28c8 -13.333 28 -20 60 -20c0 -6 9.33301 -10 28 -12v-4l12 4l64 -4l16 4l12 -4l16 4l4 -4h4l24 8l44 -4h24c10.667 0 16 -16 16 -48
v-4l-4 -4l4 -4v-4c-8 -69.333 -30.667 -104 -68 -104h-44l-33 -6l-31 -6l-20 -4v4l-60 -16l-58 -11c-34.667 -10.667 -68.667 -23 -102 -37l-38 -20c-56 -26.667 -87.667 -41.334 -95 -44.001s-28.333 -12.334 -63 -29.001l-64 -19c-25.333 -16 -68 -24 -128 -24h-12
c-24 12.667 -36 35.334 -36 68.001c2 16 4.66699 24 8 24l-4 4l4 20v8l12 12l16 16h20l12 -8c24 13.333 45.333 20 64 20l12 12l20 -4h4c12 9.33301 34.667 18.666 68 27.999c13.333 5.33301 22.666 8.66602 27.999 9.99902h24l24 10c22.667 0 40.334 6.33301 53.001 19
l22 6l17 7h12c13.333 7.33301 20 18 20 32l-152 48l-30 5l-26 3l-27 7l-32 6l-25 3l-68 -4h-12l-44 -32h-20c-5.33301 1.33301 -10.666 8 -15.999 20c23.333 70.667 63.333 120 120 148zM356.998 -34.9971c7.33301 0 19.333 -12.001 36 -36.001
c18.667 -13.333 28 -24 28 -32l-8 -24l4 -28c-9.33301 -48 -32 -72 -68 -72l-4 4h-4l-48 -20c-12.667 5.33301 -26 25.333 -40 60c-8 0 -14.667 21.333 -20 64c18.667 32 36 48 52 48c0 10.667 17.333 20 52 28c0 4.66699 6.66699 7.33398 20 8.00098zM446.998 -224.998
c7.33301 0 19.333 -12.001 36 -36.001c18.667 -13.333 28 -24 28 -32l-8 -24l4 -28c-9.33301 -48 -32 -72 -68 -72l-4 4h-4l-48 -20c-12.667 5.33301 -26 25.333 -40 60c-8 0 -14.667 21.333 -20 64c18.667 32 36 48 52 48c0 10.667 17.333 20 52 28
c0 4.66699 6.66699 7.33398 20 8.00098zM556.998 -34.999c7.33301 0 19.333 -12.001 36 -36.001c18.667 -13.333 28 -24 28 -32l-8 -24l4 -28c-9.33301 -48 -32 -72 -68 -72l-4 4h-4l-48 -20c-12.667 5.33301 -26 25.333 -40 60c-8 0 -14.667 21.333 -20 64
c18.667 32 36 48 52 48c0 10.667 17.333 20 52 28c0 4.66699 6.66699 7.33398 20 8.00098z" />
    <glyph glyph-name="uFB7D" unicode="&#x686;" horiz-adv-x="978" arabic-form="medial" 
d="M781 212l-3.00195 -26.9971l12 -8l56 -16c82.667 -4 124 -14.667 124 -32v-32l-4 -16l4 -20c0 -34.667 -8 -56 -24 -64h-76l-16 8l-36 -8l-56 8l-24 -4h-8c-14 10 -30 16.667 -48 20c-21.333 40.667 -33.333 76 -36 106l12 64v5l-46 -12l-58 -11
c-34.667 -10.667 -68.667 -23 -102 -37l-38 -20c-56 -26.667 -87.667 -41.334 -95 -44.001s-28.333 -12.334 -63 -29.001l-64 -19c-25.333 -16 -68 -24 -128 -24h-12c-24 12.667 -36 35.334 -36 68.001c2 16 4.66699 24 8 24l-4 4l4 20v8l12 12l16 16h20l12 -8
c24 13.333 45.333 20 64 20l12 12l20 -4h4c12 9.33301 34.667 18.666 68 27.999c13.333 5.33301 22.666 8.66602 27.999 9.99902h24l24 10c22.667 0 40.334 6.33301 53.001 19l22 6l17 7h12c13.333 7.33301 20 18 20 32l-152 48l-30 5l-26 3l-27 7l-32 6l-25 3l-68 -4h-12
l-44 -32h-20c-5.33301 1.33301 -10.666 8 -15.999 20c23.333 70.667 63.333 120 120 148l40 28h68l100 -28c10 -13.333 28.667 -20 56 -20c7.33301 -8 34 -17.333 80 -28c30.667 -18.667 57.334 -28 80.001 -28c8 -13.333 28 -20 60 -20c0 -6 9.33301 -10 28 -12v-4l12 4
l64 -4l16 4l12 -4l16 4l4 -4h4l24 8l44 -4h24c10.667 0 16 -16 16 -48v-4l-4 -4l4 -4v-4c-8 -76 -30.667 -110.667 -68 -104h-19zM396.998 -34.9971c7.33301 0 19.333 -12.001 36 -36.001c18.667 -13.333 28 -24 28 -32l-8 -24l4 -28c-9.33301 -48 -32 -72 -68 -72l-4 4h-4
l-48 -20c-12.667 5.33301 -26 25.333 -40 60c-8 0 -14.667 21.333 -20 64c18.667 32 36 48 52 48c0 10.667 17.333 20 52 28c0 4.66699 6.66699 7.33398 20 8.00098zM486.998 -224.998c7.33301 0 19.333 -12.001 36 -36.001c18.667 -13.333 28 -24 28 -32l-8 -24l4 -28
c-9.33301 -48 -32 -72 -68 -72l-4 4h-4l-48 -20c-12.667 5.33301 -26 25.333 -40 60c-8 0 -14.667 21.333 -20 64c18.667 32 36 48 52 48c0 10.667 17.333 20 52 28c0 4.66699 6.66699 7.33398 20 8.00098zM596.998 -34.999c7.33301 0 19.333 -12.001 36 -36.001
c18.667 -13.333 28 -24 28 -32l-8 -24l4 -28c-9.33301 -48 -32 -72 -68 -72l-4 4h-4l-48 -20c-12.667 5.33301 -26 25.333 -40 60c-8 0 -14.667 21.333 -20 64c18.667 32 36 48 52 48c0 10.667 17.333 20 52 28c0 4.66699 6.66699 7.33398 20 8.00098z" />
    <glyph glyph-name="uFB8B" unicode="&#x698;" horiz-adv-x="763" arabic-form="final" 
d="M583 237c8 0 29.334 -10.667 64.001 -32l76 -24v-4l4 4h4c14 0 23.333 -32 28 -96c-6.66699 -58.667 -25.334 -88 -56.001 -88c-12.667 -20.667 -23.334 -60.667 -32.001 -120c-22.667 -74 -58.667 -142 -108 -204c-27.333 -33.333 -47.333 -52 -60 -56
c-26.667 -32 -90.667 -57.333 -192 -76h-28c-6 6 -26 10 -60 12l-4 4c-21.333 8 -32 14.667 -32 20l-4 -4h-4c-61.333 25.333 -92 40 -92 44c-11.333 0 -18 18.667 -20 56v12c0 8 12 14.667 36 20l4 -4c0 4 64 8 192 12c0 6 42.667 16.667 128 32c6 0 42 29.333 108 88
c0 10.667 10.667 24 32 40l24 56l12 36l-4 12l8 32c-19.333 34 -36.666 59.333 -51.999 76c-29.333 8 -44 26.667 -44 56l40 80c11.333 10.667 22 16 32 16zM418.001 320c-34.667 8 -52 17.332 -52 27.999c-16 0 -33.333 16 -52 48c5.33301 42.667 12 64 20 64
c14 34.667 27.333 54.667 40 60l48 -20h4l4 4c36 0 58.667 -24 68 -72l-4 -28l8 -24c0 -8 -9.33301 -18.667 -28 -32c-16.667 -24 -28.667 -36 -36 -36c-13.333 0.666992 -20 3.33398 -20 8.00098zM508.001 509.999c-34.667 8 -52 17.332 -52 27.999
c-16 0 -33.333 16 -52 48c5.33301 42.667 12 64 20 64c14 34.667 27.333 54.667 40 60l48 -20h4l4 4c36 0 58.667 -24 68 -72l-4 -28l8 -24c0 -8 -9.33301 -18.667 -28 -32c-16.667 -24 -28.667 -36 -36 -36c-13.333 0.666992 -20 3.33398 -20 8.00098zM618.001 319.998
c-34.667 8 -52 17.332 -52 27.999c-16 0 -33.333 16 -52 48c5.33301 42.667 12 64 20 64c14 34.667 27.333 54.667 40 60l48 -20h4l4 4c36 0 58.667 -24 68 -72l-4 -28l8 -24c0 -8 -9.33301 -18.667 -28 -32c-16.667 -24 -28.667 -36 -36 -36
c-13.333 0.666992 -20 3.33398 -20 8.00098z" />
    <glyph glyph-name="uFEDA" unicode="&#x6a9;" horiz-adv-x="1432" arabic-form="final" 
d="M1232 1264h19.9922c45.333 0 68 -50.667 68 -152l-16 -80l4 -124v-4c0 -18.667 -2.66699 -33.334 -8 -44.001l4 -16v-4l-4 -4l4 -4v-12h-4l4 -28v-8l-4 -40l8 -68v-28c0 -34 -4 -54 -12 -60l4 -4v-24l-4 -32c10.667 -36.667 16 -98 16 -184h-4l40 -88
c0 -14.667 16 -29.334 48 -44.001c0 -7.33301 8 -12.666 24 -15.999l12 -40v-72c0 -56 -12 -84 -36 -84h-16c-19.333 0 -42 16 -68 48c-18.667 0 -32 17.333 -40 52l-56 92l-28 88h-8c-14 0 -36.667 -18.667 -68 -56c-45.333 -17.333 -72 -37.333 -80 -60
c-46.667 -12.667 -72 -22 -76 -28c-10.667 -8 -26.667 -13.333 -48 -16c-27.333 -7.33301 -52.666 -18 -75.999 -32c-6.66699 -4.66699 -36 -8.66699 -88 -12l-12 -4v-4l-20 4c-46 -4.66699 -76.667 -10 -92 -16h-56c-13.333 0 -20 2.66699 -20 8l-4 -4h-8
c-61.333 5.33301 -132 29.333 -212 72c-11.333 0 -44.666 22.667 -99.999 68l-8 16v28l-8 64l4 44l-8 76c2.66699 28.667 14.667 59.334 36 92.001c0 18.667 29.333 60 88 124c0 9.33301 6.66699 16 20 20c37.333 0 56 -20 56 -60c0 -47.333 -21.333 -87.333 -64 -120
c-5.33301 -20 -18.666 -42.667 -39.999 -68v-24c8.66699 -37.333 28.667 -56 60 -56c21.333 -6.66699 32 -13.334 32 -20.001l4 4h4c10.667 0 25.334 -9.33301 44.001 -28l72 -32l92 -8l20 4l24 -16l4 4h4l24 -4h4l8 8l24 -4l32 4l20 -4l52 20h28l20 -20h4
c4.66699 24 27.334 36 68.001 36l40 20l16 -4c5.33301 0 20 12 44 36c14 0 28.667 10.667 44 32c18.667 14.667 41.334 24 68.001 28l32 40v60c13.333 11.333 20 22 20 32c-5.33301 4 -8 18.667 -8 44l-20 16v16c0.666992 26.667 3.33398 40 8.00098 40l-8 32
c6 98.667 11.333 148 16 148l-20 112c10.667 18 16 34 16 48v40l-28 136c10.667 26.667 21.334 45.334 32.001 56.001l-8 16c7.33301 0 23.333 12 48 36zM847.992 1076c18.667 -18.667 28.001 -33.332 28.001 -43.999l-4 -16l4 -12c0 -28.667 -9.33301 -51.334 -28 -68.001
v-16c32 -22 48 -42 48 -60c19.333 0 36.666 -22.667 51.999 -68v-16c0 -34.667 -25.333 -72 -76 -112c0 -6 -10.667 -18 -32 -36c0 -7.33301 -14.667 -15.333 -44 -24l-12 -8c-23.333 2.66699 -38 6.66699 -44 12h-8c-11.333 -10.667 -22 -16 -32 -16
c-16 0 -24 2.66699 -24 8l-4 -4c-28.667 3.33301 -54 16.666 -76 39.999l-4 -4c-42 0 -70 16 -84 48l-4 16c0 20 20 32 60 36c24.667 -8 50 -12 76 -12c0 4.66699 16 11.334 48 20.001c18.667 -2 28 -4.66699 28 -8l36 8l-68 60c-16 25.333 -24 45.333 -24 60
c17.333 101.333 36 152 56 152l32 28l20 -4c16 26.667 42.667 40 80 40z" />
    <glyph glyph-name="uFEDB" unicode="&#x6a9;" horiz-adv-x="729" arabic-form="initial" 
d="M664 1316c26.667 0 40.001 -12.001 40.001 -36.001l28 -36c0 -53.333 -9.33301 -80 -28 -80l-36 -24l-16 4l-20 -24h-16l-12 8c-32.667 -21.333 -55.334 -32 -68.001 -32c-10 0 -48.667 -14.667 -116 -44c-49.333 -21.333 -80 -32 -92 -32
c-29.333 -18.667 -53.333 -28 -72 -28c-85.333 -33.333 -128 -56 -128 -68v-4l4 -4v-4l-8 -16c8.66699 0 18 -10.667 28 -32c10 0 38 -24 84 -72c14 0 23.333 -10.667 28 -32l88 -64c26 -42 52.667 -78 80 -108l28 -40c10 -27.333 26 -56.666 48 -87.999l16 -80v-36l8 -32
c-38 -133.333 -74 -200 -108 -200c0 -8.66699 -17.333 -23.334 -52 -44.001c-5.33301 -10.667 -36 -24 -92 -40c0 -7.33301 -46.667 -15.333 -140 -24l-80 -4v4l-4 -4h-16c-18.667 0 -28 13.333 -28 40c-4.66699 0 -7.33398 6.66699 -8.00098 20v48l4 4l-4 4v36
c0 10 20 18 60 24h88l56 -4l56 16l16 -4c32 0 68 14.667 108 44c15.333 0 31.333 14.667 48 44v28c0 49.333 -10.667 85.333 -32 108c0 24.667 -22.667 59.334 -68 104.001l-44 32c-25.333 25.333 -45.333 52 -60 80l-4 -4h-4c-138.667 126 -208 203.333 -208 232l-16 80
c22 74.667 50 112 84 112c42.667 34.667 82.667 52 120 52c19.333 19.333 39.333 30 60 32c58.667 32 101.334 52 128.001 60c10.667 13.333 28 20 52 20c2 8 18 17.333 48 28c8 13.333 25.333 20 52 20l116 60h4z" />
    <glyph glyph-name="uFEDC" unicode="&#x6a9;" horiz-adv-x="1121" arabic-form="medial" 
d="M1028 1508c18.667 0 38.667 -24.0029 60 -72.0029l4 -32c-5.33301 -13.333 -13.333 -20 -24 -20l4 -4v-4c0 -8.66699 -48 -30 -144 -64l-16 -12l-20 4c-30 -21.333 -56.667 -32 -80 -32c-4 -10 -17.333 -19.333 -40 -28c-2.66699 -8 -10.667 -12 -24 -12l-8 8
c-26.667 -8 -40 -18.667 -40 -32c-35.333 -16 -67.333 -25.333 -96 -28c-20.667 -26.667 -48.667 -40 -84 -40c0 -4 -14.667 -12 -44 -24c0 -6 -32 -20.667 -96 -44c0 -6.66699 -9.33301 -13.334 -28 -20.001l-8 -8l-4 4l-40 -16h-24c0 -12.667 -14.667 -24.667 -44 -36
c-28 -22.667 -66.667 -46.667 -116 -72l-12 -44v-4l124 -148c39.333 -48.667 63.333 -86 72 -112c45.333 -40.667 68 -68.667 68 -84c7.33301 -0.666992 31.333 -30 72 -88c8 -0.666992 16 -14 24 -40c9.33301 0 32 -25.333 68 -76c10 0 20.667 -13.333 32 -40l100 -76l24 4
c21.333 -16 49.333 -24 84 -24l4 4h4l24 -4l12 8h4c14 -10.667 26 -16 36 -16h40l44 16h48c13.333 -0.666992 20 -3.33398 20 -8.00098l44 12c40 0 60 -9.33301 60 -28c0 -18 -5.33301 -46 -16 -84l4 -16c-5.33301 0 -9.33301 -17.333 -12 -52l-12 -8h-8l-12 8l-32 -12
l-12 12h-4l-12 -8h-12c-9.33301 10.667 -30.666 17.334 -63.999 20.001l-4 -4h-4l-12 4l-12 -12c-5.33301 0 -8 5.33301 -8 16l-24 -16l-4 4l-20 -4h-8l-24 16h-4c0 -10.667 -4 -16 -12 -16c-20.667 0 -36.667 5.33301 -48 16l-24 -8h-4l-12 8h-4l-12 -8h-24l-44 12
c-14.667 16.667 -36 31.334 -64 44.001c0 13.333 -12 24 -36 32c-45.333 73.333 -84 124 -116 152h-16l-12 -8h-4c-8 0 -12 8 -12 24h-16l-4 -28l4 -16c-8.66699 0 -20.667 -26.667 -36 -80c-10 0 -16.667 -14.667 -20 -44c-16 0 -28 -16 -36 -48c-22 -10 -38 -22 -48 -36
h-4l-4 4h-4c-18 -5.33301 -39.333 -16 -64 -32l-26 -8h-12l-16 12l-34 -4h-16l-8 8v8l4 32l-4 24l4 32l-4 16c5.33301 37.333 27.333 56 66 56c113.333 25.333 170 53.333 170 84l20 28l-8 68v24l-24 20l4 28c0 6.66699 -14.667 29.334 -44 68.001
c0 10.667 -24 45.334 -72 104.001c-74.667 102.667 -112 165.334 -112 188.001l-8 80v72c0 16 12 33.333 36 52c12 21.333 33.333 36 64 44c11.333 10 40.666 24.667 87.999 44c38 38 91.333 70 160 96l188 104c64 12 96 29.333 96 52c16 13.333 56 29.333 120 48
c5.33301 10 40 28.667 104 56c0 8 42.667 26.667 128 56z" />
    </font>
</defs>
</svg>
